<svg width="71" height="64" viewBox="0 0 71 64" fill="none" xmlns="http://www.w3.org/2000/svg">
<path d="M54.6556 24.8989C56.3842 25.3451 58.7613 28.2643 58.6134 30.7054L52.3873 28.7082L54.6556 24.8989Z" fill="#00CAC9"/>
<path d="M66.7928 51.6081C54.8757 55.2771 43.2994 55.4617 31.1361 55.6481C22.0175 55.7872 12.635 55.9339 2.52927 57.5258C2.29866 57.5615 2.07734 57.6423 1.87794 57.7635C1.67855 57.8848 1.50499 58.0441 1.36717 58.2324C1.08884 58.6127 0.972988 59.0881 1.04511 59.5538C1.11722 60.0195 1.3714 60.4376 1.75173 60.7159C2.13205 60.9942 2.60737 61.1101 3.07311 61.038C12.9516 59.4822 22.2016 59.3354 31.1906 59.1981C38.4019 59.0881 45.4132 58.9715 52.4417 58.1543C54.9473 58.9722 57.1953 60.4315 58.9624 62.3872C59.1199 62.5595 59.3097 62.699 59.5211 62.7979C59.7325 62.8968 59.9613 62.9531 60.1944 62.9635C60.4275 62.974 60.6604 62.9384 60.8798 62.8589C61.0992 62.7794 61.3008 62.6574 61.473 62.4999C61.6453 62.3425 61.7848 62.1527 61.8837 61.9413C61.9826 61.7299 62.0389 61.5011 62.0494 61.268C62.0598 61.0349 62.0243 60.8019 61.9447 60.5826C61.8652 60.3632 61.7432 60.1616 61.5858 59.9893C60.66 58.9733 59.6284 58.0589 58.5086 57.2619C61.6638 56.6949 64.7821 55.939 67.8467 54.9983C68.2077 54.8848 68.523 54.6589 68.7465 54.3536C68.9701 54.0483 69.0902 53.6795 69.0894 53.3011C69.0888 53.0237 69.0232 52.7503 68.8978 52.5028C68.7725 52.2554 68.5909 52.0407 68.3676 51.8761C68.1443 51.7115 67.8855 51.6015 67.612 51.555C67.3385 51.5084 67.058 51.5266 66.7928 51.6081Z" fill="#663325"/>
<path d="M20.4907 49.9773C19.6764 53.951 18.8876 62.7294 18.8876 62.7294C19.6065 62.7261 20.3047 62.4876 20.8753 62.0502C21.4459 61.6128 21.8577 61.0007 22.0476 60.3072C23.5271 55.0594 27.4186 49.0938 27.4186 49.0938L20.4907 49.9773Z" fill="#FF931E"/>
<path d="M53.3085 17.3893C59.2262 21.1867 55.2566 30.7504 50.4485 32.4517C51.1882 37.4818 54.582 52.4282 20.1604 51.8364C20.6628 42.313 33.2871 34.965 37.2076 27.2719C41.1281 19.5789 45.951 12.6688 53.3085 17.3893Z" fill="#00CAC9"/>
<path d="M31.7571 28.7603C32.8415 27.8549 34.1963 27.336 35.608 27.2853C37.0198 27.2347 38.4083 27.6551 39.5548 28.4804C40.4752 29.2163 41.2084 30.1594 41.6947 31.2327C42.181 32.3061 42.4066 33.4792 42.353 34.6564C42.2994 35.8335 41.9681 36.9813 41.3863 38.006C40.8044 39.0307 39.9885 39.9033 39.0051 40.5525C29.2633 46.9046 17.8291 49.0936 17.8291 49.0936C19.8033 39.9702 27.1039 32.6382 31.7571 28.7603Z" fill="#FF931E"/>
<path d="M50.1036 23.4554C51.084 23.4554 51.8789 22.6606 51.8789 21.6801C51.8789 20.6996 51.084 19.9048 50.1036 19.9048C49.1231 19.9048 48.3282 20.6996 48.3282 21.6801C48.3282 22.6606 49.1231 23.4554 50.1036 23.4554Z" fill="#00CAC9"/>
<path d="M67.3141 50.4932C67.0344 50.4937 66.7563 50.5349 66.4885 50.6157C61.83 52.0271 57.0532 53.0139 52.2168 53.5639C52.0779 53.5749 51.9427 53.6139 51.8193 53.6784C51.6958 53.7429 51.5867 53.8317 51.4983 53.9395C51.41 54.0472 51.3444 54.1716 51.3053 54.3053C51.2662 54.4391 51.2546 54.5793 51.271 54.7176C51.2874 54.8559 51.3316 54.9895 51.4009 55.1104C51.4702 55.2312 51.5631 55.3368 51.6742 55.4209C51.7853 55.505 51.9122 55.5658 52.0473 55.5996C52.1824 55.6334 52.323 55.6397 52.4606 55.6179C57.4184 55.0553 62.3152 54.0452 67.091 52.5999C67.2764 52.5453 67.4758 52.5655 67.6465 52.6561C67.8172 52.7466 67.9457 52.9004 68.0045 53.0846C68.0632 53.2687 68.0476 53.4685 67.961 53.6412C67.8743 53.814 67.7234 53.9459 67.5407 54.0089C64.5161 54.9395 61.438 55.6865 58.3233 56.2458C58.1229 56.2823 57.9377 56.3771 57.7909 56.5183C57.6442 56.6596 57.5423 56.841 57.4981 57.0398C57.4539 57.2386 57.4693 57.4461 57.5424 57.6362C57.6155 57.8263 57.743 57.9907 57.909 58.1087C58.9697 58.8622 59.9458 59.728 60.8205 60.6912C60.8924 60.7688 60.9463 60.8613 60.9784 60.9622C61.0104 61.0631 61.0197 61.1698 61.0058 61.2747C60.9878 61.414 60.9306 61.5454 60.8409 61.6536C60.7512 61.7617 60.6326 61.8422 60.4989 61.8856C60.3653 61.929 60.2221 61.9335 60.0859 61.8987C59.9498 61.8639 59.8263 61.7911 59.7299 61.6889C57.8427 59.5936 55.4354 58.0342 52.7517 57.1683C52.6133 57.1249 52.4673 57.1112 52.3233 57.1281C45.3197 57.9418 38.4498 58.0489 31.1781 58.1625C28.84 58.1957 26.361 58.2365 23.817 58.3051C24.0117 57.8015 24.223 57.2991 24.4407 56.8085C26.8499 56.7494 29.1749 56.7121 31.1544 56.6831C34.9027 56.6239 38.7782 56.5647 42.6129 56.3949C42.8876 56.3826 43.1461 56.2617 43.3316 56.0587C43.5171 55.8558 43.6144 55.5875 43.602 55.3128C43.5897 55.0382 43.4688 54.7797 43.2659 54.5942C43.0629 54.4087 42.7946 54.3114 42.52 54.3237C40.9269 54.3953 39.3244 54.442 37.7266 54.4847V51.3068C42.7898 50.0641 46.5269 48.1006 48.878 45.4069C52.6689 41.0639 52.0351 35.9776 51.593 33.0767C52.7614 32.4383 53.7827 31.5617 54.591 30.5037L58.3014 31.6908C58.4034 31.7232 58.5098 31.7397 58.6168 31.7399C58.8806 31.7396 59.1344 31.6388 59.3265 31.4579C59.5186 31.2771 59.6345 31.0298 59.6506 30.7664C59.7725 28.7372 58.5174 26.5495 57.0817 25.2038C57.1486 24.8807 57.2066 24.557 57.2439 24.2321C57.6303 20.9034 56.4314 18.1635 53.8708 16.5183C50.8663 14.5892 47.9607 14.2933 45.2309 15.6366C44.9893 15.7608 44.8061 15.9749 44.7209 16.2328C44.6357 16.4907 44.6553 16.7718 44.7753 17.0155C44.8954 17.2591 45.1064 17.4458 45.3629 17.5354C45.6193 17.6249 45.9007 17.6101 46.1464 17.4942C48.2051 16.4793 50.3645 16.7308 52.75 18.2635C55.1354 19.7962 55.3928 22.2283 55.1875 23.996C54.8081 27.2643 52.5286 30.6203 50.1059 31.4766C49.8795 31.5566 49.688 31.7128 49.5641 31.9184C49.4402 32.124 49.3916 32.3664 49.4266 32.6039L49.5023 33.1051C49.9165 35.7894 50.6077 40.2821 47.3187 44.0529C43.3118 48.6427 34.5677 50.934 21.3103 50.8192C21.4014 50.2801 21.5307 49.7481 21.6973 49.2273C25.9095 48.0675 33.0629 45.669 39.573 41.4272C40.6949 40.7027 41.6268 39.7199 42.2906 38.561C42.9544 37.4022 43.3307 36.1011 43.3881 34.7668C43.4613 33.408 43.2064 32.0515 42.645 30.8119C42.0835 29.5723 41.232 28.486 40.1624 27.6448C39.685 27.3022 39.1685 27.0178 38.6238 26.7974C39.7254 24.5947 41.0445 22.5076 42.5614 20.5672C42.6541 20.4631 42.7248 20.3414 42.7693 20.2094C42.8138 20.0773 42.8312 19.9376 42.8204 19.7987C42.8097 19.6597 42.771 19.5244 42.7067 19.4007C42.6424 19.2771 42.5538 19.1677 42.4462 19.0791C42.3386 18.9905 42.2142 18.9246 42.0805 18.8852C41.9469 18.8458 41.8066 18.8338 41.6682 18.85C41.5297 18.8661 41.396 18.91 41.2749 18.979C41.1539 19.048 41.048 19.1408 40.9636 19.2517C39.2561 21.4414 37.7787 23.8012 36.5549 26.2938C35.5795 26.1984 34.5949 26.2976 33.6581 26.5858C32.7214 26.874 31.8512 27.3454 31.0982 27.9727C28.6027 30.0357 26.2954 32.3163 24.2034 34.7875C24.1134 34.8914 24.045 35.0121 24.0021 35.1427C23.9592 35.2733 23.9427 35.4111 23.9536 35.5481C23.9646 35.6851 24.0026 35.8186 24.0657 35.9407C24.1287 36.0629 24.2154 36.1712 24.3207 36.2595C24.4261 36.3478 24.5479 36.4142 24.6792 36.455C24.8105 36.4957 24.9485 36.5099 25.0853 36.4967C25.2222 36.4835 25.355 36.4432 25.4761 36.3781C25.5971 36.3131 25.7041 36.2246 25.7906 36.1178C27.8013 33.7384 30.0193 31.5422 32.4184 29.5551C33.3191 28.8003 34.4441 28.3648 35.6182 28.3164C36.7922 28.2681 37.9493 28.6095 38.909 29.2876C39.7108 29.9252 40.3481 30.7456 40.7676 31.6802C41.187 32.6148 41.3764 33.6363 41.3199 34.6591C41.2771 35.6665 40.9935 36.649 40.4928 37.5242C39.992 38.3993 39.2888 39.1418 38.4421 39.6892C37.1934 40.5029 35.9128 41.2426 34.6317 41.9219C35.5248 40.2825 36.5383 38.7115 37.6639 37.2221C37.8304 37.0036 37.9033 36.7279 37.8666 36.4557C37.8299 36.1835 37.6865 35.937 37.468 35.7705C37.2496 35.6039 36.9739 35.531 36.7016 35.5678C36.4294 35.6045 36.1829 35.7479 36.0164 35.9663C34.2609 38.2901 32.7628 40.7975 31.5485 43.4446C29.8223 44.2334 28.1429 44.9045 26.5776 45.4737C28.8341 41.2364 31.56 37.2663 34.7039 33.6383C34.887 33.4336 34.9813 33.1644 34.9661 32.8902C34.9508 32.6159 34.8272 32.3589 34.6225 32.1757C34.4177 31.9926 34.1486 31.8982 33.8744 31.9135C33.6001 31.9288 33.3431 32.0524 33.1599 32.2571C29.4292 36.5648 26.2636 41.3312 23.7401 46.4407C21.8849 47.0325 20.3273 47.4467 19.2497 47.7106C20.0684 45.0164 21.274 42.4553 22.8288 40.1076C22.9669 39.8772 23.0102 39.6022 22.9495 39.3406C22.8887 39.079 22.7287 38.8512 22.5032 38.7053C22.2777 38.5594 22.0043 38.5068 21.7408 38.5587C21.4772 38.6105 21.2442 38.7627 21.0907 38.9832C19.0794 41.9955 17.6313 45.3477 16.8169 48.877C16.7809 49.0443 16.7868 49.2179 16.8342 49.3824C16.8816 49.5468 16.969 49.6969 17.0885 49.8194C17.2081 49.9418 17.3561 50.0327 17.5194 50.084C17.6826 50.1353 17.8561 50.1453 18.0242 50.1132C18.1147 50.0955 18.6005 50.0008 19.3923 49.8173C19.2583 50.4393 19.1723 51.0706 19.1349 51.7057C18.9775 52.7022 18.8254 53.8165 18.684 54.9427C13.2194 55.1549 7.77122 55.6751 2.36527 56.5008C1.83531 56.5871 1.34103 56.823 0.940608 57.1807C0.540186 57.5384 0.250293 58.0031 0.105054 58.52C-0.0401851 59.0369 -0.034724 59.5845 0.120794 60.0984C0.276313 60.6124 0.575415 61.0712 0.982891 61.4208C1.28894 61.6841 1.64856 61.8777 2.03684 61.9883C2.42512 62.0988 2.83279 62.1237 3.23163 62.0611C8.14222 61.3066 13.0899 60.8173 18.0532 60.5953C17.9313 61.8132 17.8591 62.6156 17.8573 62.6387C17.8444 62.7819 17.8615 62.9263 17.9074 63.0625C17.9534 63.1988 18.0273 63.3239 18.1243 63.4301C18.2214 63.5362 18.3395 63.6209 18.4711 63.6789C18.6027 63.7368 18.7449 63.7667 18.8887 63.7666C19.835 63.7696 20.7549 63.4547 21.5008 62.8724C22.2475 62.2952 22.7889 61.4934 23.0453 60.5852C23.0631 60.5225 23.0862 60.4586 23.1045 60.3959C25.9072 60.3136 28.6388 60.2698 31.2077 60.2337C38.1391 60.1254 45.3037 60.013 52.3381 59.2117C54.5843 59.9916 56.5987 61.323 58.1966 63.0837C58.4574 63.3722 58.7758 63.6027 59.1312 63.7605C59.4867 63.9183 59.8713 63.9998 60.2601 63.9998C60.8055 64.0011 61.3394 63.8439 61.7971 63.5474C62.2548 63.2509 62.6165 62.8278 62.8382 62.3296C63.0599 61.8314 63.1321 61.2795 63.046 60.741C62.9599 60.2025 62.7192 59.7006 62.3532 59.2964C61.8941 58.7899 61.4087 58.3077 60.8993 57.8518C63.3983 57.3311 65.7879 56.7162 68.1473 55.9872C68.7892 55.7877 69.3383 55.3647 69.695 54.795C70.0518 54.2253 70.1925 53.5467 70.0917 52.8821C69.9909 52.2175 69.6553 51.6111 69.1457 51.1728C68.6361 50.7345 67.9862 50.4934 67.3141 50.4932ZM57.3391 29.2083L55.7745 28.7082C55.9925 28.3127 56.19 27.9062 56.3663 27.4904C56.7766 28.0098 57.1047 28.5892 57.3391 29.2083ZM26.4356 52.7892C27.7872 52.73 29.082 52.6348 30.3283 52.5146V54.6237C28.8252 54.6462 27.1582 54.6746 25.4255 54.7137C25.7716 54.0243 26.1119 53.3786 26.4356 52.7892ZM35.6542 54.5344C34.5626 54.5557 33.4777 54.5754 32.3995 54.5935V52.2856C33.531 52.1389 34.6198 51.9684 35.6542 51.7684V54.5344ZM2.91266 60.0148C2.80944 60.0312 2.70386 60.0249 2.60336 59.9961C2.50286 59.9674 2.40988 59.917 2.33095 59.8485C2.22371 59.7564 2.14479 59.6359 2.10335 59.5008C2.06191 59.3657 2.05964 59.2216 2.09683 59.0853C2.13401 58.9489 2.20911 58.8259 2.3134 58.7306C2.41769 58.6352 2.5469 58.5714 2.68601 58.5466C7.90303 57.7482 13.1603 57.2399 18.4337 57.0239C18.3745 57.5346 18.3206 58.03 18.2692 58.5099C13.1267 58.7308 8.00019 59.2332 2.91266 60.0148ZM21.0528 60.0225C20.9177 60.5031 20.6314 60.9274 20.2362 61.2326C20.177 61.277 20.1179 61.3184 20.0587 61.3569C20.2516 59.3833 20.6262 55.7877 21.0499 52.8798C21.3955 52.8827 21.7452 52.8886 22.0849 52.8886C22.7524 52.8886 23.3998 52.878 24.0454 52.8656C22.8124 55.1457 21.8099 57.5432 21.0528 60.0225Z" fill="#5A5A5A"/>
<path d="M46.3593 54.1083C46.0846 54.1175 45.8249 54.2355 45.6373 54.4363C45.4496 54.637 45.3494 54.9041 45.3586 55.1788C45.3679 55.4534 45.4859 55.7132 45.6866 55.9008C45.8874 56.0885 46.1545 56.1887 46.4291 56.1795H46.5013C47.3054 56.1238 48.109 56.0609 48.9122 55.9907C49.0502 55.9823 49.185 55.9464 49.3089 55.8851C49.4327 55.8238 49.5431 55.7383 49.6334 55.6337C49.7237 55.5291 49.7921 55.4075 49.8347 55.276C49.8773 55.1446 49.8931 55.0059 49.8813 54.8682C49.8694 54.7305 49.8301 54.5966 49.7657 54.4743C49.7013 54.352 49.6131 54.2439 49.5062 54.1563C49.3994 54.0686 49.2761 54.0033 49.1436 53.964C49.011 53.9248 48.872 53.9124 48.7347 53.9278C47.9441 53.9933 47.1523 54.0534 46.3593 54.1083Z" fill="#5A5A5A"/>
<path d="M46.1747 38.4158C46.0467 39.214 45.7758 39.9825 45.3753 40.6847C45.3051 40.8026 45.2592 40.9333 45.24 41.0692C45.2208 41.2051 45.2289 41.3434 45.2636 41.4761C45.2984 41.6089 45.3592 41.7334 45.4425 41.8424C45.5257 41.9515 45.6299 42.0429 45.7488 42.1113C45.8677 42.1798 45.999 42.2239 46.1352 42.2412C46.2713 42.2585 46.4095 42.2485 46.5417 42.2119C46.674 42.1753 46.7976 42.1128 46.9055 42.028C47.0134 41.9432 47.1033 41.8378 47.1701 41.7179C47.691 40.8029 48.0453 39.8027 48.2164 38.7638C48.2589 38.4946 48.1937 38.2195 48.0348 37.9981C47.8759 37.7767 47.6361 37.6269 47.3675 37.5811C47.0988 37.5353 46.823 37.5973 46.5997 37.7535C46.3764 37.9098 46.2237 38.1477 46.1747 38.4158Z" fill="#5A5A5A"/>
<path d="M50.1034 24.491C50.6594 24.491 51.2028 24.3261 51.6651 24.0173C52.1273 23.7084 52.4876 23.2694 52.7004 22.7558C52.9131 22.2421 52.9688 21.6769 52.8603 21.1317C52.7519 20.5864 52.4841 20.0856 52.091 19.6924C51.6979 19.2993 51.1971 19.0316 50.6518 18.9232C50.1065 18.8147 49.5413 18.8704 49.0277 19.0831C48.5141 19.2959 48.0751 19.6561 47.7662 20.1184C47.4573 20.5807 47.2925 21.1241 47.2925 21.6801C47.2934 22.4253 47.5899 23.1397 48.1168 23.6666C48.6438 24.1936 49.3582 24.49 50.1034 24.491ZM50.1034 20.9403C50.2497 20.9403 50.3927 20.9837 50.5144 21.065C50.636 21.1463 50.7308 21.2618 50.7868 21.397C50.8428 21.5321 50.8574 21.6809 50.8289 21.8244C50.8004 21.9679 50.7299 22.0997 50.6265 22.2031C50.523 22.3066 50.3912 22.377 50.2477 22.4056C50.1042 22.4341 49.9555 22.4195 49.8203 22.3635C49.6852 22.3075 49.5696 22.2127 49.4884 22.091C49.4071 21.9694 49.3637 21.8264 49.3637 21.6801C49.3638 21.4839 49.4418 21.2959 49.5805 21.1572C49.7192 21.0185 49.9073 20.9405 50.1034 20.9403Z" fill="#5A5A5A"/>
<path d="M5.43952 3.66H10.9995C11.2129 3.66 11.3695 3.68667 11.4695 3.74C11.5695 3.78667 11.6362 3.86333 11.6695 3.97C11.7029 4.07667 11.7195 4.21667 11.7195 4.39C11.7195 4.56333 11.7029 4.70333 11.6695 4.81C11.6362 4.91 11.5795 4.98 11.4995 5.02C11.3795 5.08 11.2095 5.11 10.9895 5.11H9.07952V10.14C9.07952 10.2933 9.07286 10.4067 9.05952 10.48C9.05286 10.5533 9.02286 10.64 8.96952 10.74C8.92286 10.8333 8.83619 10.9 8.70952 10.94C8.58286 10.98 8.41619 11 8.20952 11C8.00286 11 7.83619 10.98 7.70952 10.94C7.58952 10.9 7.50286 10.8333 7.44952 10.74C7.40286 10.64 7.37286 10.5533 7.35952 10.48C7.35286 10.4 7.34952 10.2833 7.34952 10.13V5.11H5.42952C5.21619 5.11 5.05952 5.08667 4.95952 5.04C4.85952 4.98667 4.79286 4.90667 4.75952 4.8C4.72619 4.69333 4.70952 4.55333 4.70952 4.38C4.70952 4.20667 4.72619 4.07 4.75952 3.97C4.79286 3.86333 4.84952 3.79 4.92952 3.75C5.04952 3.69 5.21952 3.66 5.43952 3.66ZM15.1183 3.58C16.1049 3.58 16.9616 3.93667 17.6883 4.65C18.4149 5.36333 18.7783 6.25 18.7783 7.31C18.7783 8.36333 18.4316 9.26333 17.7383 10.01C17.0449 10.75 16.1916 11.12 15.1783 11.12C14.1649 11.12 13.3016 10.7533 12.5883 10.02C11.8816 9.28667 11.5283 8.41333 11.5283 7.4C11.5283 6.84667 11.6283 6.33 11.8283 5.85C12.0283 5.36333 12.2949 4.95667 12.6283 4.63C12.9616 4.30333 13.3449 4.04667 13.7783 3.86C14.2116 3.67333 14.6583 3.58 15.1183 3.58ZM13.2983 7.35C13.2983 7.94333 13.4883 8.42667 13.8683 8.8C14.2549 9.16667 14.6849 9.35 15.1583 9.35C15.6316 9.35 16.0583 9.17 16.4383 8.81C16.8183 8.45 17.0083 7.96667 17.0083 7.36C17.0083 6.75333 16.8149 6.26667 16.4283 5.9C16.0483 5.53333 15.6216 5.35 15.1483 5.35C14.6749 5.35 14.2483 5.53667 13.8683 5.91C13.4883 6.27667 13.2983 6.75667 13.2983 7.35ZM22.4415 3.66H28.0015C28.2148 3.66 28.3715 3.68667 28.4715 3.74C28.5715 3.78667 28.6381 3.86333 28.6715 3.97C28.7048 4.07667 28.7215 4.21667 28.7215 4.39C28.7215 4.56333 28.7048 4.70333 28.6715 4.81C28.6381 4.91 28.5815 4.98 28.5015 5.02C28.3815 5.08 28.2115 5.11 27.9915 5.11H26.0815V10.14C26.0815 10.2933 26.0748 10.4067 26.0615 10.48C26.0548 10.5533 26.0248 10.64 25.9715 10.74C25.9248 10.8333 25.8381 10.9 25.7115 10.94C25.5848 10.98 25.4181 11 25.2115 11C25.0048 11 24.8381 10.98 24.7115 10.94C24.5915 10.9 24.5048 10.8333 24.4515 10.74C24.4048 10.64 24.3748 10.5533 24.3615 10.48C24.3548 10.4 24.3515 10.2833 24.3515 10.13V5.11H22.4315C22.2181 5.11 22.0615 5.08667 21.9615 5.04C21.8615 4.98667 21.7948 4.90667 21.7615 4.8C21.7281 4.69333 21.7115 4.55333 21.7115 4.38C21.7115 4.20667 21.7281 4.07 21.7615 3.97C21.7948 3.86333 21.8515 3.79 21.9315 3.75C22.0515 3.69 22.2215 3.66 22.4415 3.66ZM33.8059 3.94C33.8593 3.84 33.9493 3.77 34.0759 3.73C34.2026 3.69 34.3626 3.67 34.5559 3.67C34.7493 3.67 34.9026 3.68667 35.0159 3.72C35.1293 3.75333 35.2159 3.79333 35.2759 3.84C35.3359 3.88667 35.3826 3.95333 35.4159 4.04C35.4493 4.15333 35.4659 4.32667 35.4659 4.56V10.11C35.4659 10.2633 35.4593 10.38 35.4459 10.46C35.4393 10.5333 35.4093 10.62 35.3559 10.72C35.2626 10.9 35.0026 10.99 34.5759 10.99C34.1093 10.99 33.8359 10.8667 33.7559 10.62C33.7159 10.5067 33.6959 10.3333 33.6959 10.1V8.07H31.0459V10.11C31.0459 10.2633 31.0393 10.38 31.0259 10.46C31.0193 10.5333 30.9893 10.62 30.9359 10.72C30.8426 10.9 30.5826 10.99 30.1559 10.99C29.6893 10.99 29.4159 10.8667 29.3359 10.62C29.2959 10.5067 29.2759 10.3333 29.2759 10.1V4.55C29.2759 4.39667 29.2793 4.28333 29.2859 4.21C29.2993 4.13 29.3326 4.04 29.3859 3.94C29.4793 3.76 29.7393 3.67 30.1659 3.67C30.6326 3.67 30.9093 3.79333 30.9959 4.04C31.0293 4.15333 31.0459 4.32667 31.0459 4.56V6.6H33.6959V4.55C33.6959 4.39667 33.6993 4.28333 33.7059 4.21C33.7193 4.13 33.7526 4.04 33.8059 3.94ZM38.0381 9.23H41.1181C41.2715 9.23 41.3848 9.23667 41.4581 9.25C41.5381 9.25667 41.6281 9.28667 41.7281 9.34C41.9081 9.43333 41.9981 9.69333 41.9981 10.12C41.9981 10.5867 41.8748 10.86 41.6281 10.94C41.5148 10.98 41.3415 11 41.1081 11H37.1481C36.6815 11 36.4081 10.8733 36.3281 10.62C36.2881 10.5133 36.2681 10.3433 36.2681 10.11V4.55C36.2681 4.21 36.3315 3.98 36.4581 3.86C36.5848 3.73333 36.8248 3.67 37.1781 3.67H41.1181C41.2715 3.67 41.3848 3.67667 41.4581 3.69C41.5381 3.69667 41.6281 3.72667 41.7281 3.78C41.9081 3.87333 41.9981 4.13333 41.9981 4.56C41.9981 5.02667 41.8748 5.3 41.6281 5.38C41.5148 5.42 41.3415 5.44 41.1081 5.44H38.0381V6.45H40.0181C40.1715 6.45 40.2848 6.45667 40.3581 6.47C40.4381 6.47667 40.5281 6.50667 40.6281 6.56C40.8081 6.65333 40.8981 6.91333 40.8981 7.34C40.8981 7.80667 40.7715 8.08 40.5181 8.16C40.4048 8.2 40.2315 8.22 39.9981 8.22H38.0381V9.23ZM45.6544 3.66H51.2144C51.4277 3.66 51.5844 3.68667 51.6844 3.74C51.7844 3.78667 51.851 3.86333 51.8844 3.97C51.9177 4.07667 51.9344 4.21667 51.9344 4.39C51.9344 4.56333 51.9177 4.70333 51.8844 4.81C51.851 4.91 51.7944 4.98 51.7144 5.02C51.5944 5.08 51.4244 5.11 51.2044 5.11H49.2944V10.14C49.2944 10.2933 49.2877 10.4067 49.2744 10.48C49.2677 10.5533 49.2377 10.64 49.1844 10.74C49.1377 10.8333 49.051 10.9 48.9244 10.94C48.7977 10.98 48.631 11 48.4244 11C48.2177 11 48.051 10.98 47.9244 10.94C47.8044 10.9 47.7177 10.8333 47.6644 10.74C47.6177 10.64 47.5877 10.5533 47.5744 10.48C47.5677 10.4 47.5644 10.2833 47.5644 10.13V5.11H45.6444C45.431 5.11 45.2744 5.08667 45.1744 5.04C45.0744 4.98667 45.0077 4.90667 44.9744 4.8C44.941 4.69333 44.9244 4.55333 44.9244 4.38C44.9244 4.20667 44.941 4.07 44.9744 3.97C45.0077 3.86333 45.0644 3.79 45.1444 3.75C45.2644 3.69 45.4344 3.66 45.6544 3.66ZM55.3331 3.58C56.3198 3.58 57.1765 3.93667 57.9031 4.65C58.6298 5.36333 58.9931 6.25 58.9931 7.31C58.9931 8.36333 58.6465 9.26333 57.9531 10.01C57.2598 10.75 56.4065 11.12 55.3931 11.12C54.3798 11.12 53.5165 10.7533 52.8031 10.02C52.0965 9.28667 51.7431 8.41333 51.7431 7.4C51.7431 6.84667 51.8431 6.33 52.0431 5.85C52.2431 5.36333 52.5098 4.95667 52.8431 4.63C53.1765 4.30333 53.5598 4.04667 53.9931 3.86C54.4265 3.67333 54.8731 3.58 55.3331 3.58ZM53.5131 7.35C53.5131 7.94333 53.7031 8.42667 54.0831 8.8C54.4698 9.16667 54.8998 9.35 55.3731 9.35C55.8465 9.35 56.2731 9.17 56.6531 8.81C57.0331 8.45 57.2231 7.96667 57.2231 7.36C57.2231 6.75333 57.0298 6.26667 56.6431 5.9C56.2631 5.53333 55.8365 5.35 55.3631 5.35C54.8898 5.35 54.4631 5.53667 54.0831 5.91C53.7031 6.27667 53.5131 6.75667 53.5131 7.35ZM65.057 5.15C65.2304 5.50333 65.317 5.89667 65.317 6.33C65.317 6.76333 65.2304 7.15667 65.057 7.51C64.8837 7.85667 64.6604 8.13333 64.387 8.34C63.8337 8.76667 63.2604 8.98 62.667 8.98H61.417V10.11C61.417 10.2633 61.4104 10.38 61.397 10.46C61.3904 10.5333 61.3604 10.62 61.307 10.72C61.2137 10.9 60.9537 10.99 60.527 10.99C60.0604 10.99 59.787 10.8667 59.707 10.62C59.667 10.5067 59.647 10.3333 59.647 10.1V4.55C59.647 4.39667 59.6504 4.28333 59.657 4.21C59.6704 4.13 59.7037 4.04 59.757 3.94C59.8504 3.76 60.1104 3.67 60.537 3.67H62.677C63.2637 3.67 63.8337 3.88333 64.387 4.31C64.6604 4.51667 64.8837 4.79667 65.057 5.15ZM62.677 7.21C62.877 7.21 63.0737 7.13667 63.267 6.99C63.4604 6.84333 63.557 6.62333 63.557 6.33C63.557 6.03667 63.4604 5.81667 63.267 5.67C63.0737 5.51667 62.8737 5.44 62.667 5.44H61.417V7.21H62.677Z" fill="#5A5A5A"/>
</svg>
