<svg width="200" height="200" viewBox="0 0 200 200" fill="none" xmlns="http://www.w3.org/2000/svg">
<path d="M151.314 39.229C154.549 39.229 157.172 36.6057 157.172 33.3696C157.172 30.1336 154.549 27.5103 151.314 27.5103C148.079 27.5103 145.456 30.1336 145.456 33.3696C145.456 36.6057 148.079 39.229 151.314 39.229Z" fill="#FF931E"/>
<path d="M194.099 39.2291C197.335 39.2291 199.958 36.6057 199.958 33.3698C199.958 30.1338 197.335 27.5104 194.099 27.5104H183.154C174.864 -0.550149 137.282 -6.71382 120.624 17.8178L86.4018 68.2139C67.2464 69.1225 79.9018 68.521 28.3038 70.9753C25.0741 71.1292 22.5764 73.8749 22.7307 77.1073C23.5241 93.7401 29.7491 109.393 40.4218 121.913L25.5136 131.08C22.7577 132.775 21.8971 136.384 23.5921 139.141C24.4346 140.511 25.3257 141.856 26.2557 143.172L2.78934 157.606C-0.132539 159.403 -0.891914 163.321 1.14715 166.08L15.6495 185.703C16.7925 187.249 18.562 188.08 20.3647 188.08C22.6409 188.08 20.7667 188.848 55.3667 167.57C70.1393 174.518 87.1186 176.661 103.926 172.77C106.482 173.418 109.182 173.901 112.004 174.219L116.173 185.783H109.906C106.671 185.783 104.048 188.407 104.048 191.642C104.048 194.878 106.671 197.502 109.906 197.502H163.796C167.031 197.502 169.654 194.878 169.654 191.642C169.654 188.407 167.031 185.783 163.796 185.783H153.305L147.585 169.919C196.883 151.974 216.198 91.1342 184.591 48.0987V39.2288H194.099V39.2291ZM130.321 24.3948C134.66 18.0041 141.863 14.1885 149.589 14.1885C162.45 14.1885 172.874 24.6045 172.874 37.4795V49.4252C172.263 52.0209 168.831 64.7499 158.047 76.7792C155.859 70.1393 151.524 61.3877 149.613 59.6788C147.691 57.9596 144.854 57.6959 142.642 59.0553L81.0749 96.9135C81.5393 96.2299 129.838 25.1084 130.321 24.3948ZM78.1675 80.3374L56.7616 111.861L50.5417 115.687C42.119 106.364 36.7296 94.817 34.9815 82.3893L78.1675 80.3374ZM21.8737 174.411L14.3612 164.246L33.8257 152.273C36.7725 155.293 40.2327 158.285 43.8823 160.876L21.8737 174.411ZM36.8706 137.852L143.56 72.2475C159.192 103.853 145.629 142.471 113.234 157.293C86.4518 169.546 54.5792 161.478 36.8706 137.852ZM140.85 185.783C136.119 185.783 133.074 185.783 128.627 185.783L124.586 174.575C128.544 174.371 132.45 173.876 136.278 173.102L140.85 185.783ZM188.241 94.9995C188.294 130.024 161.725 158.847 127.901 162.558C151.703 147.02 164.896 118.956 161.13 90.2725C171.122 81.2233 177.026 71.0811 180.398 63.3893C189.008 79.5889 188.241 94.9995 188.241 94.9995Z" fill="#FF931E"/>
</svg>
