<svg width="200" height="200" viewBox="0 0 200 200" fill="none" xmlns="http://www.w3.org/2000/svg">
<g clip-path="url(#clip0)">
<path d="M54.9378 112.446C58.1739 112.446 60.7972 109.824 60.7972 106.589C60.7972 103.355 58.1739 100.732 54.9378 100.732C51.7018 100.732 49.0784 103.355 49.0784 106.589C49.0784 109.824 51.7018 112.446 54.9378 112.446Z" fill="#FF931E"/>
<path d="M145.016 112.446C148.252 112.446 150.875 109.824 150.875 106.589C150.875 103.355 148.252 100.732 145.016 100.732C141.779 100.732 139.156 103.355 139.156 106.589C139.156 109.824 141.779 112.446 145.016 112.446Z" fill="#FF931E"/>
<path d="M130.715 146.759C127.479 146.759 124.855 149.381 124.855 152.615C124.855 157.603 120.891 162.035 115.283 162.035C110.087 162.035 105.859 157.809 105.859 152.615V151.415C110.882 149.989 114.17 147.313 117.405 143.517C120.164 140.286 122.134 136.921 123.259 133.516C125.316 127.3 122.855 120.456 117.273 116.874C106.616 110.036 92.9007 110.135 82.3414 117.125C77.1363 120.574 74.7679 127.11 76.5812 133.016C77.68 136.603 79.7062 140.138 82.5835 143.499C85.746 147.231 89.0531 149.972 94.1406 151.415V152.615C94.1406 157.809 89.9132 162.035 84.7171 162.035C79.1105 162.035 75.1449 157.604 75.1449 152.615C75.1449 149.381 72.5214 146.759 69.2855 146.759C66.0496 146.759 63.4261 149.381 63.4261 152.615C63.4261 171.808 86.9581 180.847 99.9999 167.195C113.05 180.856 136.574 171.796 136.574 152.615C136.574 149.381 133.951 146.759 130.715 146.759ZM87.7851 129.583C87.4874 128.614 87.9218 127.481 88.8148 126.889C95.405 122.526 104.112 122.348 110.942 126.731C112.037 127.434 112.516 128.683 112.134 129.839C112.133 129.839 112.133 129.84 112.133 129.84C111.166 132.766 109.017 135.522 106.845 137.692C103.095 141.45 96.9355 141.479 93.1511 137.688C90.9191 135.457 88.7132 132.612 87.7851 129.583Z" fill="#FF931E"/>
<path d="M194.972 131.165L182.938 129.159C184.155 125.287 185.248 121.292 186.204 117.173L186.204 117.175C189.308 103.825 189.913 91.7637 188.041 81.0668C191.44 67.8754 199.98 29.3383 191.387 3.97777C190.492 1.33715 187.856 -0.304648 185.093 0.047305C183.688 0.227383 151.727 4.60004 131.743 30.3211C112.403 26.2704 89.8193 25.7961 68.2061 30.3129C48.2213 4.59965 16.2662 0.227383 14.8623 0.0476957C12.0986 -0.305429 9.46308 1.33754 8.56855 3.97816C-0.0341894 29.3657 8.53339 67.9598 11.9252 81.111C9.14823 97.0274 12.1955 113.823 17.0228 129.165L5.02909 131.165C1.82597 131.624 -0.398642 134.592 0.0611234 137.794C0.520108 140.993 3.4873 143.219 6.69315 142.759L21.0728 140.417C23.1213 145.435 25.4123 150.189 27.9385 154.66L8.11269 164.378C2.55956 167.1 4.51972 175.494 10.6967 175.494C12.5486 175.494 11.2967 175.863 34.256 164.609C68.3049 212.258 132.338 211.341 165.71 164.591L186.73 174.895C189.635 176.319 193.146 175.119 194.571 172.215C195.996 169.311 194.795 165.802 191.89 164.378L172.029 154.643C174.554 150.172 176.843 145.422 178.888 140.412L193.309 142.76C196.492 143.22 199.479 141.012 199.941 137.794C200.4 134.592 198.176 131.624 194.972 131.165ZM144.254 33.675C156.779 20.161 173.487 14.6598 181.66 12.6664C184.972 27.3969 182.953 46.4317 180.453 60.6223C172.253 47.2028 159.23 38.7118 144.254 33.675ZM18.2982 12.6516C26.4635 14.6215 43.1455 20.0868 55.7064 33.6727C40.7377 38.7055 27.683 47.1989 19.5017 60.6219C17.001 46.427 14.9814 27.3836 18.2982 12.6516ZM161.49 149.477L154.213 145.91C151.308 144.486 147.797 145.686 146.372 148.59C144.947 151.494 146.147 155.003 149.053 156.427L155.026 159.355C144.156 173.903 130.36 183.684 112.032 187.099C88.224 191.454 62.6982 183.26 44.9381 159.373L50.9482 156.427C53.8537 155.003 55.0541 151.494 53.6291 148.59C52.2045 145.686 48.6943 144.486 45.7885 145.91L38.4771 149.494C36.5213 146.084 34.715 142.482 33.0627 138.697L46.276 136.803C49.4791 136.344 51.7037 133.376 51.2439 130.174C50.7846 126.972 47.8146 124.752 44.6119 125.208L28.7853 127.478C14.0853 82.8895 24.7033 51.3426 70.6803 41.7621V61.3508C70.6803 64.5852 73.3037 67.2075 76.5396 67.2075C79.7756 67.2075 82.399 64.5852 82.399 61.3508V39.8977C86.1416 39.4676 90.0541 39.1637 94.1178 38.9825V73.0633C94.1178 76.2977 96.7412 78.92 99.9771 78.92C103.213 78.92 105.837 76.2977 105.837 73.0633V38.9786C109.912 39.1582 113.819 39.4614 117.555 39.8887V61.3504C117.555 64.5848 120.179 67.2071 123.415 67.2071C126.651 67.2071 129.274 64.5848 129.274 61.3504V41.7547C174.825 51.234 185.984 82.5356 171.175 127.472L155.39 125.208C152.187 124.752 149.217 126.972 148.758 130.174C148.298 133.375 150.522 136.343 153.726 136.803L166.898 138.691C165.248 142.47 163.444 146.069 161.49 149.477Z" fill="#FF931E"/>
</g>
<defs>
<clipPath id="clip0">
<rect width="200" height="200" fill="white"/>
</clipPath>
</defs>
</svg>
