<svg width="102" height="100" viewBox="0 0 102 100" fill="none" xmlns="http://www.w3.org/2000/svg">
<path d="M28.5127 56.2229C30.1438 56.2229 31.466 54.9118 31.466 53.2945C31.466 51.6773 30.1438 50.3662 28.5127 50.3662C26.8816 50.3662 25.5594 51.6773 25.5594 53.2945C25.5594 54.9118 26.8816 56.2229 28.5127 56.2229Z" fill="#FF931E"/>
<path d="M73.915 56.2229C75.546 56.2229 76.8683 54.9118 76.8683 53.2945C76.8683 51.6773 75.546 50.3662 73.915 50.3662C72.2839 50.3662 70.9617 51.6773 70.9617 53.2945C70.9617 54.9118 72.2839 56.2229 73.915 56.2229Z" fill="#FF931E"/>
<path d="M66.7067 73.3792C65.0757 73.3792 63.7534 74.6903 63.7534 76.3075C63.7534 78.8014 61.7554 81.0171 58.9285 81.0171C56.3095 81.0171 54.1788 78.9044 54.1788 76.3075V75.7073C56.7105 74.9944 58.3675 73.6563 59.998 71.7583C61.3886 70.1428 62.3815 68.4604 62.9489 66.7579C63.9855 63.6497 62.7449 60.228 59.9318 58.437C54.5599 55.0177 47.6472 55.0671 42.3249 58.5622C39.7014 60.287 38.5077 63.555 39.4216 66.5077C39.9755 68.301 40.9967 70.0686 42.447 71.7491C44.041 73.6151 45.7079 74.9858 48.2721 75.7075V76.3075C48.2721 78.9044 46.1414 81.0171 43.5224 81.0171C40.6965 81.0171 38.6977 78.8016 38.6977 76.3075C38.6977 74.6903 37.3754 73.3792 35.7444 73.3792C34.1134 73.3792 32.7911 74.6903 32.7911 76.3075C32.7911 85.904 44.652 90.4235 51.2254 83.5971C57.8033 90.428 69.66 85.8979 69.66 76.3075C69.66 74.6903 68.3377 73.3792 66.7067 73.3792ZM45.0688 64.7911C44.9187 64.3069 45.1377 63.7401 45.5878 63.4442C48.9095 61.2628 53.2983 61.1735 56.7407 63.3653C57.2925 63.7167 57.5337 64.3413 57.3412 64.9192C57.341 64.9194 57.341 64.9198 57.3408 64.92C56.8535 66.3829 55.7704 67.7608 54.6755 68.8458C52.7854 70.7247 49.6809 70.7391 47.7734 68.8436C46.6484 67.7282 45.5366 66.3059 45.0688 64.7911Z" fill="#FF931E"/>
<path d="M99.0955 65.5824L93.0296 64.5795C93.6433 62.6436 94.194 60.6461 94.6762 58.5865L94.676 58.5873C96.2404 51.9127 96.5454 45.8819 95.6019 40.5334C97.3152 33.9377 101.62 14.6692 97.2881 1.98889C96.837 0.668574 95.5084 -0.152324 94.1158 0.0236525C93.408 0.113692 77.2985 2.30002 67.2259 15.1606C57.4778 13.1352 46.0949 12.8981 35.2011 15.1565C25.1282 2.29982 9.02178 0.113692 8.31416 0.0238478C6.92118 -0.152715 5.59278 0.66877 5.14191 1.98908C0.805853 14.6828 5.12419 33.9799 6.83376 40.5555C5.43409 48.5137 6.97001 56.9113 9.40315 64.5824L3.35791 65.5824C1.74343 65.8119 0.622157 67.2959 0.853894 68.8969C1.08524 70.4967 2.5808 71.6094 4.19665 71.3797L11.4445 70.2086C12.477 72.7174 13.6317 75.0944 14.905 77.3301L4.91214 82.1891C2.11319 83.55 3.10117 87.7471 6.21455 87.7471C7.148 87.7471 6.51697 87.9317 18.0892 82.3047C35.2509 106.129 67.5259 105.67 84.3461 82.2957L94.9412 87.4475C96.4054 88.1594 98.1749 87.5596 98.8931 86.1076C99.6111 84.6555 99.0061 82.9012 97.5419 82.1891L87.5315 77.3217C88.804 75.0858 89.9576 72.7108 90.9886 70.2059L98.2571 71.3799C99.8614 71.61 101.367 70.5059 101.6 68.8971C101.831 67.2959 100.71 65.8119 99.0955 65.5824ZM73.5318 16.8375C79.845 10.0805 88.2663 7.3299 92.3856 6.33322C94.0552 13.6985 93.0375 23.2158 91.7774 30.3112C87.6443 23.6014 81.0803 19.3559 73.5318 16.8375ZM10.046 6.3258C14.1615 7.31076 22.5698 10.0434 28.9009 16.8363C21.3562 19.3528 14.7762 23.5994 10.6526 30.311C9.39212 23.2135 8.37421 13.6918 10.046 6.3258ZM82.2193 74.7387L78.5513 72.9551C77.0872 72.2432 75.3174 72.8428 74.5993 74.2949C73.8813 75.7471 74.4861 77.5014 75.9506 78.2135L78.9614 79.6774C73.4826 86.9514 66.5285 91.8422 57.2909 93.5494C45.2908 95.7268 32.425 91.6301 23.4733 79.6863L26.5026 78.2135C27.9671 77.5014 28.5721 75.7471 27.8539 74.2949C27.1358 72.8428 25.3666 72.2428 23.902 72.9551L20.2168 74.7469C19.231 73.042 18.3206 71.2408 17.4877 69.3486L24.1477 68.4014C25.7621 68.1719 26.8834 66.6879 26.6517 65.0869C26.4201 63.486 24.9232 62.3758 23.3089 62.6041L15.3318 63.7389C7.92255 41.4447 13.2744 25.6713 36.4482 20.8811V30.6754C36.4482 32.2926 37.7705 33.6037 39.4015 33.6037C41.0326 33.6037 42.3549 32.2926 42.3549 30.6754V19.9488C44.2412 19.7338 46.2133 19.5819 48.2615 19.4912V36.5317C48.2615 38.1488 49.5838 39.46 51.2148 39.46C52.8458 39.46 54.1681 38.1488 54.1681 36.5317V19.4893C56.2222 19.5791 58.1915 19.7307 60.0747 19.9444V30.6752C60.0747 32.2924 61.397 33.6035 63.028 33.6035C64.6591 33.6035 65.9814 32.2924 65.9814 30.6752V20.8774C88.9406 25.617 94.5651 41.2678 87.1009 63.736L79.1445 62.6041C77.5304 62.3758 76.0333 63.486 75.8017 65.0869C75.57 66.6877 76.6913 68.1717 78.3057 68.4014L84.9452 69.3457C84.1135 71.2352 83.2041 73.0344 82.2193 74.7387Z" fill="#FF931E"/>
</svg>
