<svg width="72" height="100" viewBox="0 0 72 100" fill="none" xmlns="http://www.w3.org/2000/svg">
<path d="M52.4869 45.5849C54.1175 45.5849 55.4394 44.2733 55.4394 42.6553C55.4394 41.0372 54.1175 39.7256 52.4869 39.7256C50.8563 39.7256 49.5344 41.0372 49.5344 42.6553C49.5344 44.2733 50.8563 45.5849 52.4869 45.5849Z" fill="#FF931E"/>
<path d="M19.0815 45.5849C20.7121 45.5849 22.034 44.2733 22.034 42.6553C22.034 41.0372 20.7121 39.7256 19.0815 39.7256C17.4509 39.7256 16.129 41.0372 16.129 42.6553C16.129 44.2733 17.4509 45.5849 19.0815 45.5849Z" fill="#FF931E"/>
<path d="M58.2472 0.722361C57.1351 -0.240527 55.4771 -0.240722 54.3648 0.721971C54.1363 0.919822 49.2744 5.17352 45.6093 11.6555C39.716 9.87429 32.0035 9.82527 25.9393 11.6561C22.2742 5.17391 17.4119 0.920017 17.1835 0.721971C16.0714 -0.240722 14.4135 -0.240722 13.3012 0.722361C12.7782 1.17548 0.491936 11.9733 0.491936 25.752C0.491936 31.5693 1.57058 37.1857 3.53477 41.6693C3.27417 52.5113 6.65024 64.471 13.7888 74.4831C16.8783 78.8165 18.8653 82.212 24.0134 85.1811V88.3301C24.0134 94.7649 29.2893 100 35.7742 100C42.259 100 47.5349 94.7649 47.5349 88.3301V85.1864C50.4233 83.5161 52.9461 81.2333 54.8764 78.5272C57.9293 74.2421 59.6189 72.0427 61.7165 68.0468C62.3047 67.1597 68.3524 55.8042 68.0138 41.6705C69.978 37.1869 71.0564 31.5701 71.0564 25.7522C71.0564 11.9733 58.77 1.17548 58.2472 0.722361ZM56.3084 7.05555C59.415 10.3653 65.1515 17.5836 65.1515 25.752C65.1515 26.7826 65.1137 27.8039 65.0393 28.8078C62.2 22.6166 57.4037 17.2459 51.1106 13.9145C52.8518 10.9833 54.865 8.59617 56.3084 7.05555ZM58.318 61.4241L50.9876 54.2753C46.9832 50.372 44.551 44.9256 44.551 39.041C44.551 29.8258 49.89 24.9385 52.6874 22.0147C58.4792 26.8651 62.1183 34.4225 62.1183 42.459C62.1183 48.7642 60.905 55.2183 58.318 61.4241ZM9.52892 40.1826C10.1076 33.3018 13.4313 26.5633 18.8712 22.0049C21.3056 24.5492 27.8956 30.3391 26.9287 40.9826C26.4672 46.0136 24.2126 50.7345 20.5797 54.2757L13.2374 61.4362C10.1537 54.0478 9.04766 45.9025 9.52892 40.1826ZM15.2475 7.05691C16.6883 8.59246 18.6954 10.9727 20.4384 13.9126C14.0958 17.2614 9.31358 22.6887 6.50931 28.8082C6.4349 27.8041 6.39692 26.783 6.39692 25.7522C6.39692 17.6198 12.1425 10.3768 15.2475 7.05691ZM35.7742 94.1405C32.5453 94.1405 29.9184 91.5338 29.9184 88.3299V87.5901C33.7305 88.5704 37.7179 88.5922 41.63 87.5897V88.3299C41.63 91.5338 39.003 94.1405 35.7742 94.1405ZM38.4062 69.2026C36.9664 70.6352 34.6013 70.635 33.1616 69.2026C32.0293 68.0757 31.2913 66.9751 30.9687 65.931C30.8984 65.7034 31.012 65.4224 31.2329 65.2769C33.9604 63.4841 37.5045 63.4718 40.2366 65.2136C40.534 65.403 40.6669 65.7312 40.5671 66.0306C40.2287 67.0454 39.5016 68.1128 38.4062 69.2026ZM52.9364 71.0997C50.0261 75.1845 46.95 80.821 38.7267 82.2219V75.6817C42.3966 74.5194 45.2076 70.7667 46.1731 67.8714C47.1188 65.0362 45.9896 61.9159 43.4278 60.2833C38.7363 57.2931 32.6621 57.3091 27.9721 60.3923C25.5785 61.9655 24.4894 64.9495 25.3234 67.6485C26.2623 70.6872 29.1358 74.4993 32.8217 75.6753V82.2225C28.2912 81.4503 24.1912 78.9257 21.4932 75.1436C18.4509 70.8763 17.4701 69.5954 15.9724 66.9847L24.7185 58.4548C35.2607 48.1789 35.8108 31.2074 25.3911 20.3086L23.891 18.7409C29.1874 16.1465 33.3569 16.2012 36.6973 16.2012C40.5173 16.2012 44.2413 17.0639 47.67 18.7485L46.1764 20.3096C35.7915 31.1719 36.2724 48.1445 46.849 58.4546L55.5834 66.9728C54.7725 68.3851 53.8909 69.7622 52.9364 71.0997Z" fill="#FF931E"/>
</svg>
