<svg width="200" height="200" viewBox="0 0 200 200" fill="none" xmlns="http://www.w3.org/2000/svg">
<g clip-path="url(#clip0)">
<path d="M170.546 105.893C173.798 105.893 176.434 103.252 176.434 99.9954C176.434 96.7384 173.798 94.0981 170.546 94.0981C167.294 94.0981 164.658 96.7384 164.658 99.9954C164.658 103.252 167.294 105.893 170.546 105.893Z" fill="#FF931E"/>
<path d="M18.1969 137.821C27.8414 136.161 39.5383 130.658 46.6672 121.614C49.6059 124.266 52.5957 126.792 55.6195 129.168L47.2238 134.312C37.8485 140.036 39.0153 154.375 49.516 158.398C63.1879 163.647 78.4317 159.102 87.1559 147.923C91.2285 149.577 95.309 150.93 99.3563 151.971C96.5203 163.381 97.936 174.649 108.759 178.314C134.279 186.954 152.273 162.187 166.343 140.49C177.476 133.973 187.638 125.422 187.933 125.029C203.97 111.385 204.075 88.6961 187.931 74.9602C181.205 69.2426 173.959 63.9594 166.343 59.5016C153.575 39.8114 135.129 12.7469 108.76 21.6774C97.9508 25.3364 96.5063 36.5434 99.3547 48.011C95.3156 49.0508 91.3442 50.3606 87.1527 52.0633C78.4223 40.8809 63.1785 36.3489 49.5199 41.5915C39.1785 45.5536 37.6988 59.6821 47.2242 65.679L55.6199 70.8231C52.5953 73.1997 49.6059 75.7258 46.6676 78.3778C39.5695 69.3727 27.8414 63.8297 18.1875 62.1692C5.36799 59.979 -4.30858 73.8168 1.959 85.3204C6.96564 94.5098 6.96564 105.482 1.959 114.672C-4.30819 126.174 5.36681 140.013 18.1969 137.821ZM92.0559 62.7981C111.06 55.2051 128.97 55.2008 148.92 63.8391C134.327 85.7169 134.324 114.268 148.919 136.152C129.877 144.396 111.972 145.155 92.05 137.184C77.032 114.751 77.0172 85.2543 92.0559 62.7981ZM181.237 84.7797C189.836 92.8325 190.579 104.744 182.93 113.464C179.947 116.862 169.332 125.18 159.538 130.804C146.475 112.343 146.503 87.6079 159.538 69.1872C168.576 74.3704 177.837 81.5958 181.237 84.7797ZM53.7278 147.384C52.4059 146.877 52.2317 145.109 53.409 144.35L65.9778 136.65C68.9879 138.634 72.7613 140.911 76.0688 142.694C70.3047 148.37 61.6067 150.408 53.7278 147.384ZM112.531 167.14C111.498 166.79 110.907 166.296 110.491 165.433C109.433 163.243 109.627 159.167 110.964 154.113C121.853 155.306 133.125 154.181 145.161 150.206C135.143 162.99 124.652 171.243 112.531 167.14ZM110.491 34.5583C110.907 33.6954 111.498 33.2008 112.531 32.8512C124.653 28.7458 135.142 36.9993 145.161 49.7852C133.172 45.8129 121.825 44.6985 110.964 45.8782C109.627 40.8239 109.433 36.7481 110.491 34.5583ZM53.7305 52.6063C61.5903 49.5899 70.2914 51.6094 76.0684 57.2965C72.7137 59.1047 68.9145 61.4051 65.9778 63.3419L53.4094 55.6415C52.2324 54.8825 52.4039 53.1145 53.7305 52.6063ZM74.0688 72.1458C67.332 89.9735 67.3192 109.983 74.0688 127.845C66.2301 122.843 58.7719 116.876 51.9965 110.504C46.5363 105.367 46.0848 97.0848 50.2754 91.4223C52.2125 88.7946 63.1574 79.1098 74.0688 72.1458ZM16.1977 73.7938C24.159 75.17 34.0996 80.1149 38.7946 87.5938C34.7223 95.2294 34.6602 104.644 38.7942 112.397C36.5098 116.037 30.4606 123.006 16.4695 126.144C13.0758 126.906 10.7508 123.159 12.2969 120.321C19.2309 107.594 19.2309 92.3973 12.2969 79.6708C10.7488 76.8301 13.0727 73.2594 16.1977 73.7938Z" fill="#FF931E"/>
</g>
<defs>
<clipPath id="clip0">
<rect width="200" height="200" fill="white"/>
</clipPath>
</defs>
</svg>
