<svg width="200" height="200" viewBox="0 0 200 200" fill="none" xmlns="http://www.w3.org/2000/svg">
<g clip-path="url(#clip0)">
<path d="M133.167 91.1704C136.403 91.1704 139.026 88.5471 139.026 85.311C139.026 82.075 136.403 79.4517 133.167 79.4517C129.931 79.4517 127.307 82.075 127.307 85.311C127.307 88.5471 129.931 91.1704 133.167 91.1704Z" fill="#FF931E"/>
<path d="M66.8723 91.1704C70.1084 91.1704 72.7317 88.5471 72.7317 85.311C72.7317 82.075 70.1084 79.4517 66.8723 79.4517C63.6363 79.4517 61.0129 82.075 61.0129 85.311C61.0129 88.5471 63.6363 91.1704 66.8723 91.1704Z" fill="#FF931E"/>
<path d="M144.599 1.44473C142.392 -0.481055 139.102 -0.481445 136.894 1.44395C136.441 1.83965 126.792 10.3471 119.518 23.3111C107.823 19.7486 92.5168 19.6506 80.482 23.3123C73.2086 10.3479 63.559 1.84004 63.1059 1.44395C60.8988 -0.481445 57.6086 -0.481445 55.4012 1.44473C54.3633 2.35098 29.9805 23.9467 29.9805 51.5041C29.9805 63.1389 32.1211 74.3717 36.0191 83.3389C35.502 105.023 42.202 128.942 56.3687 148.967C62.5 157.633 66.4434 164.424 76.6602 170.363V176.661C76.6602 189.53 87.1305 200.001 100 200.001C112.87 200.001 123.34 189.53 123.34 176.661V170.373C129.072 167.033 134.079 162.467 137.909 157.055C143.968 148.485 147.321 144.086 151.484 136.094C152.651 134.32 164.653 111.609 163.981 83.3412C167.879 74.374 170.02 63.1404 170.02 51.5045C170.02 23.9467 145.636 2.35098 144.599 1.44473ZM140.751 14.1111C146.916 20.7307 158.301 35.1674 158.301 51.5041C158.301 53.5654 158.226 55.608 158.078 57.6158C152.443 45.2334 142.925 34.492 130.436 27.8291C133.891 21.9666 137.887 17.1924 140.751 14.1111ZM144.739 122.849L130.192 108.551C122.245 100.744 117.418 89.8514 117.418 78.0822C117.418 59.6518 128.014 49.8771 133.565 44.0295C145.059 53.7303 152.281 68.8451 152.281 84.9182C152.281 97.5287 149.873 110.437 144.739 122.849ZM47.9148 80.3654C49.0633 66.6037 55.6594 53.1268 66.4551 44.01C71.2863 49.0986 84.3645 60.6783 82.4457 81.9654C81.5297 92.0275 77.0555 101.469 69.8457 108.552L55.2746 122.873C49.1547 108.096 46.9598 91.8053 47.9148 80.3654ZM59.2637 14.1139C62.123 17.185 66.1063 21.9455 69.5652 27.8252C56.9781 34.5229 47.4875 45.3775 41.9223 57.6166C41.7746 55.6084 41.6992 53.5662 41.6992 51.5045C41.6992 35.2396 53.1016 20.7537 59.2637 14.1139ZM100 188.281C93.5922 188.281 88.3789 183.068 88.3789 176.66V175.181C95.9441 177.141 103.857 177.185 111.621 175.18V176.66C111.621 183.068 106.408 188.281 100 188.281ZM105.223 138.406C102.366 141.271 97.6723 141.271 94.8152 138.406C92.568 136.152 91.1035 133.951 90.4633 131.862C90.3238 131.407 90.5492 130.845 90.9875 130.554C96.4004 126.969 103.434 126.944 108.856 130.428C109.446 130.806 109.71 131.463 109.512 132.062C108.84 134.091 107.397 136.226 105.223 138.406ZM134.059 142.2C128.284 150.369 122.179 161.642 105.859 164.444V151.364C113.143 149.039 118.721 141.534 120.637 135.743C122.514 130.073 120.273 123.832 115.189 120.567C105.879 114.587 93.8238 114.619 84.5164 120.785C79.766 123.931 77.6047 129.899 79.2598 135.297C81.123 141.375 86.8258 148.999 94.1406 151.351V164.446C85.1496 162.901 77.0129 157.852 71.6586 150.288C65.6211 141.753 63.6746 139.191 60.7023 133.97L78.0594 116.91C98.9809 96.358 100.073 62.415 79.3941 40.6174L76.4172 37.4818C86.9281 32.2932 95.2027 32.4025 101.832 32.4025C109.413 32.4025 116.804 34.1279 123.608 37.4971L120.644 40.6193C100.034 62.3439 100.989 96.2893 121.979 116.91L139.313 133.946C137.703 136.771 135.954 139.525 134.059 142.2Z" fill="#FF931E"/>
</g>
<defs>
<clipPath id="clip0">
<rect width="200" height="200" fill="white"/>
</clipPath>
</defs>
</svg>
