<svg width="200" height="200" viewBox="0 0 200 200" fill="none" xmlns="http://www.w3.org/2000/svg">
<g clip-path="url(#clip0)">
<path d="M45.2097 36.9639C48.4458 36.9639 51.0691 34.3405 51.0691 31.1045C51.0691 27.8684 48.4458 25.2451 45.2097 25.2451C41.9737 25.2451 39.3503 27.8684 39.3503 31.1045C39.3503 34.3405 41.9737 36.9639 45.2097 36.9639Z" fill="#FF931E"/>
<path d="M154.793 36.9639C158.029 36.9639 160.652 34.3405 160.652 31.1045C160.652 27.8684 158.029 25.2451 154.793 25.2451C151.557 25.2451 148.934 27.8684 148.934 31.1045C148.934 34.3405 151.557 36.9639 154.793 36.9639Z" fill="#FF931E"/>
<path d="M20.4113 200H179.591C192.823 200 198.12 182.95 187.262 175.433C184.357 173.422 181.004 171.629 177.277 170.091C191.232 150.441 193.664 134.384 184.107 124.82C175.369 116.077 165.658 115.646 158 117.936C158.22 114.795 158.352 111.752 158.388 108.827C171.238 99.0263 180.224 85.2747 180.224 69.122C180.224 63.8103 177.736 53.7009 183.299 41.2044C184.583 38.6368 185.827 33.9755 185.821 29.2689C185.807 13.4599 172.939 0.332529 157.136 0.00596696C148.921 -0.151846 140.966 3.15284 135.298 9.10323C131.815 12.7642 126.458 14.411 121.322 13.4036C107.63 10.7142 92.7832 10.6333 78.682 13.4032C73.5445 14.4118 68.1839 12.7603 64.6933 9.09698C59.0406 3.16065 51.0984 -0.160439 42.8953 0.00596696C22.3441 0.405576 8.09371 21.9189 16.7171 41.2298C22.2621 53.6466 19.7746 63.7775 19.7746 69.1216C19.7746 85.2521 28.7578 99.0122 41.5781 108.805C41.6625 111.258 41.8117 114.381 42.073 117.939C32.6628 115.038 23.5113 117.199 15.8953 124.82C6.33824 134.384 8.76832 150.438 22.7253 170.09C19.0019 171.626 15.6464 173.42 12.7402 175.433C1.86051 182.965 7.20582 200 20.4113 200ZM53.7097 116.385C81.0964 130.276 118.538 130.504 146.364 116.345C144.653 142.549 136.036 172.131 129.986 180.74C129.702 181.113 129.514 181.328 129.514 181.328C128.609 182.358 127.803 183.293 126.095 184.53V165.09C126.095 150.701 114.39 138.996 100.002 138.996C85.6132 138.996 73.9078 150.701 73.9078 165.09V184.529C71.0824 182.459 68.9582 179.725 67.664 176.734C59.7156 158.373 55.1636 137.036 53.7097 116.385ZM39.0664 90.0282C50.5632 87.5939 61.3793 84.172 71.3168 79.8208C89.5461 71.8372 110.457 71.8376 128.686 79.8204C138.619 84.172 149.433 87.5931 160.932 90.0278C135.834 122.691 65.3363 124.177 39.0664 90.0282ZM85.6265 188.281V165.09C85.6265 157.163 92.075 150.715 100.002 150.715C107.928 150.715 114.377 157.163 114.377 165.09V188.281H85.6265ZM175.818 133.103C183.208 140.499 171.105 158.628 167.221 164.005C163.018 169.82 165.445 178.018 172.096 180.637C175.338 181.918 178.196 183.409 180.592 185.068C182.029 186.063 181.342 188.282 179.591 188.282H138.994C141.719 184.835 142.945 181.866 144.536 177.94C150.462 163.311 154.412 146.932 156.583 131.356C163.458 127.063 170.085 127.368 175.818 133.103ZM56.2086 17.1794C62.5285 23.813 71.773 26.6997 80.9394 24.9025C93.1382 22.5064 106.45 22.4247 119.064 24.9025C128.235 26.7028 137.477 23.8161 143.787 17.1821C147.239 13.5587 151.893 11.6095 156.896 11.7224C169.215 11.9767 177.741 24.8732 172.594 36.4392C165.705 51.913 168.506 65.0294 168.506 69.1216C168.506 72.5497 167.935 75.9435 166.811 79.256C154.797 76.9595 143.572 73.5478 133.387 69.0868C112.17 59.795 87.8332 59.7942 66.616 69.0868C56.4269 73.5482 45.2 76.9599 33.1882 79.256C31.6582 74.7462 31.1718 70.1001 31.6941 65.6142C32.8586 55.4083 31.3796 45.3243 27.4179 36.4513C26.405 34.1829 25.8941 31.7653 25.9 29.2618C25.9285 13.611 45.2453 5.66769 56.2086 17.1794ZM19.4105 185.068C21.8066 183.409 24.6648 181.919 27.8976 180.64C34.5765 178.011 36.9742 169.805 32.7828 164.008C28.8976 158.628 16.7949 140.499 24.1847 133.104C29.9898 127.295 36.6578 127.113 43.4664 131.384C45.3269 145.104 48.5418 158.986 53.1316 171.804C56.4246 180.999 58.1937 184.701 61.0343 188.282H20.4113C18.6644 188.281 17.9714 186.065 19.4105 185.068Z" fill="#FF931E"/>
</g>
<defs>
<clipPath id="clip0">
<rect width="200" height="200" fill="white"/>
</clipPath>
</defs>
</svg>
