<svg width="101" height="100" viewBox="0 0 101 100" fill="none" xmlns="http://www.w3.org/2000/svg">
<g clip-path="url(#clip0)">
<path d="M22.7872 18.4821C24.4183 18.4821 25.7405 17.1705 25.7405 15.5524C25.7405 13.9344 24.4183 12.6227 22.7872 12.6227C21.1562 12.6227 19.8339 13.9344 19.8339 15.5524C19.8339 17.1705 21.1562 18.4821 22.7872 18.4821Z" fill="#FF931E"/>
<path d="M78.0206 18.4821C79.6517 18.4821 80.974 17.1705 80.974 15.5524C80.974 13.9344 79.6517 12.6227 78.0206 12.6227C76.3896 12.6227 75.0673 13.9344 75.0673 15.5524C75.0673 17.1705 76.3896 18.4821 78.0206 18.4821Z" fill="#FF931E"/>
<path d="M10.288 100H90.5197C97.1893 100 99.8591 91.4752 94.3862 87.7166C92.9221 86.7113 91.232 85.8144 89.3533 85.0457C96.3874 75.2205 97.6132 67.1924 92.7957 62.4099C88.3919 58.0388 83.4971 57.823 79.6371 58.9681C79.748 57.3976 79.8143 55.8761 79.8326 54.4137C86.3095 49.5133 90.8387 42.6375 90.8387 34.5611C90.8387 31.9053 89.5847 26.8506 92.3888 20.6023C93.0359 19.3185 93.6626 16.9879 93.6601 14.6346C93.6526 6.73006 87.1669 0.166387 79.2018 0.00310555C75.0613 -0.0758007 71.0513 1.57654 68.1948 4.55174C66.4392 6.38221 63.7389 7.20564 61.1502 6.70193C54.2489 5.35721 46.7658 5.31678 39.6583 6.70174C37.0689 7.20604 34.367 6.38025 32.6076 4.54861C29.7584 1.58045 25.7553 -0.0800976 21.6207 0.00310555C11.2622 0.20291 4.07955 10.9595 8.42604 20.615C11.2209 26.8234 9.96708 31.8888 9.96708 34.5609C9.96708 42.6262 14.4949 49.5062 20.9568 54.4027C20.9993 55.6293 21.0745 57.1904 21.2062 58.9695C16.4632 57.5189 11.8505 58.5998 8.01179 62.4099C3.19473 67.1922 4.41957 75.2191 11.4544 85.0453C9.57763 85.8131 7.88637 86.7103 6.42153 87.7164C0.937812 91.4826 3.63202 100 10.288 100ZM27.0715 58.1928C40.8753 65.1383 59.747 65.2523 73.772 58.1728C72.9099 71.2746 68.5667 86.0658 65.5169 90.3699C65.3738 90.5564 65.2791 90.6642 65.2791 90.6642C64.8231 91.1791 64.4167 91.6469 63.5561 92.265V82.5449C63.5561 75.3508 57.6562 69.498 50.404 69.498C43.1519 69.498 37.252 75.3508 37.252 82.5449V92.2646C35.8279 91.2299 34.7572 89.8625 34.1049 88.3674C30.0986 79.1867 27.8043 68.5183 27.0715 58.1928ZM19.6908 45.0142C25.4856 43.7971 30.9372 42.0861 35.946 39.9105C45.1342 35.9187 55.6737 35.9189 64.8617 39.9103C69.8684 42.0861 75.3192 43.7967 81.1152 45.014C68.4649 61.3455 32.9317 62.0888 19.6908 45.0142ZM43.1586 94.1406V82.5449C43.1586 78.5818 46.4088 75.3574 50.404 75.3574C54.3993 75.3574 57.6495 78.5818 57.6495 82.5449V94.1406H43.1586ZM88.6178 66.5517C92.3427 70.2498 86.2427 79.314 84.2851 82.0027C82.1664 84.9101 83.3898 89.009 86.7422 90.3185C88.376 90.9594 89.8166 91.7049 91.0243 92.5342C91.7487 93.0318 91.4024 94.141 90.5199 94.141H70.0578C71.4313 92.4176 72.0489 90.9332 72.8506 88.9701C75.8378 81.6558 77.8287 73.466 78.923 65.6779C82.3882 63.5316 85.7284 63.684 88.6178 66.5517ZM28.331 8.58982C31.5164 11.9066 36.176 13.35 40.7961 12.4513C46.9447 11.2533 53.6541 11.2125 60.0122 12.4513C64.6347 13.3515 69.2931 11.9082 72.4736 8.59119C74.2131 6.77947 76.559 5.80486 79.0807 5.86131C85.2898 5.98846 89.587 12.4367 86.9929 18.2197C83.5209 25.9566 84.9324 32.5148 84.9324 34.5609C84.9324 36.275 84.6448 37.9719 84.0783 39.6281C78.0229 38.4799 72.3649 36.774 67.2316 34.5435C56.5375 29.8976 44.2708 29.8972 33.5767 34.5435C28.441 36.7742 22.7823 38.4801 16.728 39.6281C15.9568 37.3732 15.7117 35.0502 15.9749 32.8072C16.5618 27.7043 15.8164 22.6623 13.8196 18.2258C13.309 17.0916 13.0515 15.8828 13.0545 14.631C13.0688 6.80564 22.8051 2.83396 28.331 8.58982ZM9.78358 92.5342C10.9913 91.7049 12.4319 90.9595 14.0614 90.3201C17.4277 89.0054 18.6362 84.9027 16.5236 82.0039C14.5654 79.314 8.46522 70.2498 12.1899 66.5519C15.1159 63.6478 18.4768 63.5566 21.9085 65.6924C22.8463 72.5521 24.4667 79.493 26.7801 85.9023C28.4399 90.4996 29.3316 92.3506 30.7633 94.141H10.288C9.40752 94.1408 9.05824 93.0324 9.78358 92.5342Z" fill="#FF931E"/>
</g>
<defs>
<clipPath id="clip0">
<rect width="100.806" height="100" fill="white"/>
</clipPath>
</defs>
</svg>
