<svg width="40" height="40" viewBox="0 0 40 40" fill="none" xmlns="http://www.w3.org/2000/svg">
<path d="M25.961 10.6421H14.0392C12.1363 10.6421 10.5881 12.1903 10.5881 14.0931V26.015C10.5881 27.9179 12.1363 29.4665 14.0392 29.4665H25.961C27.8639 29.4665 29.4125 27.9183 29.4125 26.015V14.0931C29.4125 12.1903 27.8644 10.6421 25.961 10.6421ZM20.0001 26.2512C16.5834 26.2512 13.8034 23.4713 13.8034 20.0541C13.8034 16.6373 16.5834 13.8574 20.0001 13.8574C23.4173 13.8574 26.1972 16.6373 26.1972 20.0541C26.1972 23.4708 23.4169 26.2512 20.0001 26.2512ZM26.3964 15.1386C25.5876 15.1386 24.9298 14.4809 24.9298 13.6725C24.9298 12.8641 25.5876 12.2063 26.3964 12.2063C27.2048 12.2063 27.8626 12.8641 27.8626 13.6725C27.8626 14.4809 27.2048 15.1386 26.3964 15.1386Z" fill="#6A453B"/>
<path d="M20 16.4756C18.0275 16.4756 16.4214 18.0808 16.4214 20.0532C16.4214 22.0265 18.0275 23.6322 20 23.6322C21.9733 23.6322 23.578 22.0265 23.578 20.0532C23.578 18.0812 21.9728 16.4756 20 16.4756Z" fill="#6A453B"/>
<path d="M20 0C8.95475 0 0 8.95475 0 20C0 31.0453 8.95475 40 20 40C31.0453 40 40 31.0453 40 20C40 8.95475 31.0453 0 20 0ZM32.0306 26.0148C32.0306 29.3621 29.3081 32.0845 25.9609 32.0845H14.0391C10.6923 32.0845 7.96943 29.3621 7.96943 26.0148V14.093C7.96943 10.7462 10.6923 8.02335 14.0391 8.02335H25.9609C29.3081 8.02335 32.0306 10.7462 32.0306 14.093V26.0148Z" fill="#6A453B"/>
</svg>
