<?xml version="1.0" encoding="utf-8"?>
<!-- Generator: Adobe Illustrator 25.0.1, SVG Export Plug-In . SVG Version: 6.00 Build 0)  -->
<svg version="1.1" id="Calque_1" xmlns="http://www.w3.org/2000/svg" xmlns:xlink="http://www.w3.org/1999/xlink" x="0px" y="0px"
	 viewBox="0 0 390.4 55.9" style="enable-background:new 0 0 390.4 55.9;" xml:space="preserve">
<style type="text/css">
	.st0{fill:#FF931E;}
	.st1{fill:#00CAC9;}
</style>
<g>
	<path class="st0" d="M38.2,42.7c1.9,0,3.2,0.2,4.1,0.7c0.8,0.5,1.4,1.1,1.7,2c0.3,0.9,0.5,2,0.5,3.3s-0.1,2.4-0.4,3.2
		c-0.2,0.8-0.5,1.4-0.9,1.9c-0.3,0.4-0.8,0.7-1.5,0.9c-0.8,0.3-2,0.4-3.7,0.4h-30C7,55.1,6,54.9,5,54.3c-2.1-1.2-3.2-3.1-3.2-5.7
		c0-1.2,0.3-2.3,0.9-3L25,14.7H8.4c-1.2,0-2,0-2.6-0.1c-0.6-0.1-1.2-0.3-2-0.6c-1.4-0.7-2.1-2.5-2.1-5.4c0-3.1,0.6-4.9,1.9-5.6
		c0.7-0.4,1.4-0.6,1.9-0.7c0.6-0.1,1.4-0.1,2.6-0.1h28.9c1.1,0,2.2,0.3,3.2,0.9c1,0.6,1.8,1.3,2.3,2.3c0.6,1,0.8,2.1,0.8,3.4
		s-0.3,2.3-0.9,3.1L20.3,42.7H38.2z"/>
	<path class="st0" d="M73.9,1.6c7.1,0,13.3,2.6,18.5,7.7c5.2,5.1,7.8,11.5,7.8,19.1c0,7.6-2.5,14.1-7.5,19.4c-5,5.4-11.1,8-18.4,8
		c-7.3,0-13.5-2.6-18.6-7.9c-5.1-5.3-7.7-11.6-7.7-18.9c0-4,0.7-7.7,2.2-11.2c1.4-3.5,3.4-6.4,5.8-8.7c2.4-2.4,5.2-4.2,8.3-5.5
		C67.4,2.2,70.6,1.6,73.9,1.6z M60.8,28.7c0,4.3,1.4,7.7,4.1,10.4c2.8,2.7,5.8,4,9.3,4c3.4,0,6.5-1.3,9.2-3.9
		c2.7-2.6,4.1-6.1,4.1-10.4c0-4.4-1.4-7.9-4.1-10.5c-2.8-2.6-5.8-4-9.3-4c-3.4,0-6.5,1.3-9.2,4S60.8,24.4,60.8,28.7z"/>
	<path class="st0" d="M129.7,1.6c7.1,0,13.3,2.6,18.5,7.7c5.2,5.1,7.8,11.5,7.8,19.1c0,7.6-2.5,14.1-7.5,19.4c-5,5.4-11.1,8-18.4,8
		c-7.3,0-13.5-2.6-18.6-7.9c-5.1-5.3-7.7-11.6-7.7-18.9c0-4,0.7-7.7,2.2-11.2c1.4-3.5,3.4-6.4,5.8-8.7c2.4-2.4,5.2-4.2,8.3-5.5
		C123.2,2.2,126.4,1.6,129.7,1.6z M116.6,28.7c0,4.3,1.4,7.7,4.1,10.4c2.8,2.7,5.8,4,9.3,4s6.5-1.3,9.2-3.9
		c2.7-2.6,4.1-6.1,4.1-10.4c0-4.4-1.4-7.9-4.1-10.5c-2.8-2.6-5.8-4-9.3-4c-3.4,0-6.5,1.3-9.2,4C118,21,116.6,24.4,116.6,28.7z"/>
	<path class="st1" d="M216.9,4.2c0.4,0.7,0.6,1.4,0.7,1.9c0.1,0.6,0.1,1.4,0.1,2.5v40c0,3.3-0.9,5.3-2.7,5.8
		c-0.9,0.3-2.1,0.4-3.5,0.4c-1.4,0-2.5-0.1-3.3-0.4c-0.8-0.2-1.4-0.5-1.9-0.9c-0.4-0.3-0.8-0.8-1-1.4c-0.2-0.8-0.4-2.1-0.4-3.7V24.4
		c-1.2,1.5-3,3.9-5.3,7.1c-2.3,3.2-3.8,5.3-4.4,6.1c-0.6,0.8-1.1,1.4-1.3,1.7c-0.2,0.3-0.8,0.7-1.8,1.3c-0.9,0.6-1.9,0.8-3,0.8
		s-2.1-0.3-3-0.8c-0.9-0.5-1.5-1-1.9-1.5l-0.6-0.8c-1-1.2-2.9-3.8-5.7-7.7c-2.8-3.9-4.4-6-4.6-6.3v24.3c0,1.1,0,1.9-0.1,2.5
		c-0.1,0.6-0.3,1.2-0.7,1.8c-0.7,1.3-2.6,1.9-5.6,1.9c-2.9,0-4.8-0.6-5.5-1.9c-0.4-0.7-0.6-1.3-0.7-1.9c-0.1-0.6-0.1-1.4-0.1-2.6
		v-40c0-1.1,0-1.9,0.1-2.5c0.1-0.6,0.3-1.2,0.7-1.9c0.7-1.2,2.6-1.9,5.6-1.9c1.3,0,2.4,0.2,3.3,0.5c0.9,0.3,1.5,0.6,1.8,1l0.4,0.4
		l16.3,21.5c8.2-10.8,13.6-17.9,16.3-21.4c0.8-1.3,2.7-1.9,5.8-1.9C214.3,2.3,216.2,2.9,216.9,4.2z"/>
	<path class="st1" d="M253.9,6l19.4,40.2c0.8,1.6,1.2,2.9,1.2,3.7c0,1.7-1.4,3.3-4.2,4.7c-1.6,0.8-2.9,1.2-3.9,1.2
		c-0.9,0-1.7-0.2-2.3-0.6c-0.6-0.4-1-0.9-1.3-1.4c-0.3-0.5-0.6-1.2-1.1-2.2l-3.7-7.8h-19.9l-3.7,7.8c-0.5,1-0.9,1.7-1.1,2.1
		c-0.3,0.4-0.7,0.9-1.3,1.3c-0.6,0.5-1.4,0.7-2.3,0.7c-0.9,0-2.2-0.4-3.9-1.2c-2.8-1.3-4.2-2.9-4.2-4.6c0-0.8,0.4-2,1.2-3.7
		l19.4-40.2c0.5-1.1,1.3-2,2.4-2.7c1.1-0.7,2.2-1,3.4-1C250.7,2.2,252.6,3.5,253.9,6z M248,23.2l-4.8,9.9h9.6L248,23.2z"/>
	<path class="st1" d="M291.2,44.3h19.6c1.6,0,2.7,0.2,3.5,0.5s1.2,0.9,1.4,1.7s0.4,1.8,0.4,3.1s-0.1,2.3-0.4,3.1
		c-0.2,0.8-0.6,1.3-1.2,1.6c-0.9,0.5-2.2,0.7-3.7,0.7h-25.9c-3.4,0-5.3-0.9-5.9-2.7c-0.3-0.8-0.4-2-0.4-3.7v-40c0-1.1,0-1.9,0.1-2.5
		c0.1-0.6,0.3-1.2,0.7-1.9c0.7-1.3,2.5-1.9,5.6-1.9c3.4,0,5.4,0.9,6,2.7c0.2,0.8,0.4,2.1,0.4,3.7V44.3z"/>
	<path class="st1" d="M320.8,8.6c0-1.1,0-1.9,0.1-2.5c0.1-0.6,0.3-1.2,0.7-1.9c0.7-1.3,2.5-1.9,5.6-1.9c3.4,0,5.4,0.9,6,2.7
		c0.2,0.8,0.4,2.1,0.4,3.7v40c0,1.2,0,2-0.1,2.5c-0.1,0.5-0.3,1.2-0.7,1.9c-0.7,1.3-2.5,1.9-5.6,1.9c-3.4,0-5.3-0.9-5.9-2.7
		c-0.3-0.8-0.4-2-0.4-3.7V8.6z"/>
	<path class="st1" d="M369.7,6l19.4,40.2c0.8,1.6,1.2,2.9,1.2,3.7c0,1.7-1.4,3.3-4.2,4.7c-1.6,0.8-2.9,1.2-3.9,1.2
		c-0.9,0-1.7-0.2-2.3-0.6c-0.6-0.4-1-0.9-1.3-1.4c-0.3-0.5-0.6-1.2-1.1-2.2l-3.7-7.8h-19.9l-3.7,7.8c-0.5,1-0.9,1.7-1.1,2.1
		c-0.3,0.4-0.7,0.9-1.3,1.3c-0.6,0.5-1.4,0.7-2.3,0.7c-0.9,0-2.2-0.4-3.9-1.2c-2.8-1.3-4.2-2.9-4.2-4.6c0-0.8,0.4-2,1.2-3.7
		l19.4-40.2c0.5-1.1,1.3-2,2.4-2.7c1.1-0.7,2.2-1,3.4-1C366.5,2.2,368.5,3.5,369.7,6z M363.9,23.2l-4.8,9.9h9.6L363.9,23.2z"/>
</g>
</svg>
