<svg width="40" height="40" viewBox="0 0 40 40" fill="none" xmlns="http://www.w3.org/2000/svg">
<path d="M40 31.4282C40 32.7341 38.9414 33.7928 37.6355 33.7928H2.36445C1.05859 33.7928 0 32.734 0 31.4282V8.57156C0 7.2657 1.05859 6.20703 2.36445 6.20703H37.6355C38.9414 6.20703 39.9999 7.2657 39.9999 8.57156L40 31.4282Z" fill="#0099DF"/>
<path opacity="0.15" d="M1.68102 31.4282V8.57156C1.68102 7.2657 2.73977 6.20703 4.04563 6.20703H2.36438C1.05859 6.20703 0 7.26578 0 8.57156V31.4282C0 32.7341 1.05859 33.7928 2.36445 33.7928H4.0457C2.73984 33.7928 1.68102 32.734 1.68102 31.4282Z" fill="#202121"/>
<path d="M26.1475 18.3266C26.1475 16.9181 26.7963 15.6613 27.8113 14.8384C27.04 14.213 26.057 13.8379 24.9866 13.8379C22.5076 13.8379 20.4983 15.8474 20.4983 18.3265C20.4983 20.8055 22.5076 22.8148 24.9866 22.8148C26.0571 22.8148 27.04 22.44 27.8113 21.8144C26.7963 20.9916 26.1475 19.7349 26.1475 18.3266Z" fill="#EA001B"/>
<path d="M30.6361 13.8379C29.5656 13.8379 28.583 14.213 27.8115 14.8384C28.8266 15.6613 29.4754 16.9181 29.4754 18.3266C29.4754 19.7349 28.8266 20.9916 27.8115 21.8144C28.583 22.44 29.5658 22.8149 30.6361 22.8149C33.1153 22.8149 35.1246 20.8055 35.1246 18.3266C35.1246 15.8474 33.1151 13.8379 30.6361 13.8379Z" fill="#F79F1A"/>
<path d="M29.475 18.3266C29.475 16.9181 28.8262 15.6613 27.8111 14.8384C26.7961 15.6613 26.1473 16.9181 26.1473 18.3266C26.1473 19.7349 26.7961 20.9917 27.8111 21.8145C28.8261 20.9917 29.475 19.7349 29.475 18.3266Z" fill="#FF5F01"/>
<path d="M12.9565 20.4072C12.9565 20.7225 12.7006 20.9781 12.3856 20.9781H5.30095C4.98556 20.9781 4.73001 20.7225 4.73001 20.4072V14.8863C4.73001 14.5709 4.98564 14.3154 5.30095 14.3154H12.3856C12.7006 14.3154 12.9565 14.5709 12.9565 14.8863V20.4072Z" fill="#FFC715"/>
<path d="M13.0348 25.8674H4.73013C4.36989 25.8674 4.07794 25.5753 4.07794 25.2152C4.07794 24.8549 4.36982 24.563 4.73013 24.563H13.0348C13.3951 24.563 13.687 24.8549 13.687 25.2152C13.687 25.5753 13.3951 25.8674 13.0348 25.8674Z" fill="#34495E"/>
<path d="M13.0348 28.5871H4.73013C4.36989 28.5871 4.07794 28.2952 4.07794 27.9349C4.07794 27.5747 4.36982 27.2827 4.73013 27.2827H13.0348C13.3951 27.2827 13.687 27.5746 13.687 27.9349C13.687 28.2951 13.3951 28.5871 13.0348 28.5871Z" fill="#34495E"/>
<path d="M6.94492 20.9782H8.24929V20.3261V14.9676V14.3154H6.94492V14.9676V15.884H5.38226H4.73007V17.1884H5.38226H6.94492V18.1053H5.38226H4.73007V19.4096H5.38226H6.94492V20.3261V20.9782Z" fill="#FFA617"/>
<path d="M12.3048 17.1884H12.957V15.884H12.3048H11.061V14.9676V14.3154H9.75665V14.9676V18.7574C9.75665 19.1175 10.0485 19.4096 10.4088 19.4096H12.3048H12.957V18.1052H12.3048H11.061V17.1884H12.3048Z" fill="#FFA617"/>
<path opacity="0.15" d="M5.93126 20.4072V14.8863C5.93126 14.5709 6.18681 14.3154 6.5022 14.3154H5.30095C4.98556 14.3154 4.73001 14.5709 4.73001 14.8863V20.4072C4.73001 20.7225 4.98564 20.9781 5.30095 20.9781H6.50228C6.18681 20.9782 5.93126 20.7225 5.93126 20.4072Z" fill="#202121"/>
</svg>
