<svg width="102" height="98" viewBox="0 0 102 98" fill="none" xmlns="http://www.w3.org/2000/svg">
<path d="M77.0897 18.6147C78.7204 18.6147 80.0424 17.3031 80.0424 15.6851C80.0424 14.067 78.7204 12.7554 77.0897 12.7554C75.4589 12.7554 74.137 14.067 74.137 15.6851C74.137 17.3031 75.4589 18.6147 77.0897 18.6147Z" fill="#FF931E"/>
<path d="M98.655 18.6148C100.286 18.6148 101.608 17.3031 101.608 15.6851C101.608 14.0672 100.286 12.7554 98.655 12.7554H93.1382C88.9599 -1.27483 70.0169 -4.35667 61.621 7.90915L44.3719 33.1072C34.7169 33.5615 41.0957 33.2607 15.0886 34.4879C13.4607 34.5648 12.2018 35.9377 12.2796 37.5539C12.6795 45.8703 15.8171 53.6967 21.1965 59.9566L13.6822 64.5404C12.2932 65.3879 11.8595 67.1922 12.7138 68.5707C13.1384 69.2558 13.5875 69.9281 14.0563 70.5861L2.2285 77.8033C0.755782 78.7017 0.373033 80.6605 1.40079 82.0404L8.71043 91.8517C9.28653 92.6248 10.1784 93.04 11.0871 93.04C12.2343 93.04 11.2897 93.4244 28.7292 82.7851C36.1751 86.2594 44.7332 87.3308 53.2045 85.3853C54.4931 85.7094 55.8536 85.9506 57.2763 86.1097L59.3775 91.8918H56.2188C54.5882 91.8918 53.2661 93.2035 53.2661 94.8215C53.2661 96.4394 54.588 97.7512 56.2188 97.7512H83.3808C85.0115 97.7512 86.3336 96.4394 86.3336 94.8215C86.3336 93.2035 85.0117 91.8918 83.3808 91.8918H78.093L75.2104 83.9597C100.058 74.9875 109.793 44.5674 93.8624 23.0496V18.6146H98.655V18.6148ZM66.5084 11.1976C68.6958 8.00232 72.3262 6.09451 76.22 6.09451C82.7026 6.09451 87.9569 11.3025 87.9569 17.74V23.7129C87.6486 25.0107 85.9189 31.3752 80.4833 37.3898C79.3807 34.0699 77.1956 29.6941 76.2323 28.8396C75.2634 27.9801 73.8336 27.8482 72.7188 28.5279L41.6869 47.457C41.921 47.1152 66.265 11.5545 66.5084 11.1976ZM40.2215 39.1689L29.4323 54.9308L26.2972 56.8435C22.0519 52.182 19.3355 46.4088 18.4544 40.1949L40.2215 39.1689ZM11.8476 86.2058L8.0611 81.1232L17.8718 75.1367C19.3571 76.6469 21.1012 78.1426 22.9407 79.4385L11.8476 86.2058ZM19.4066 67.9263L73.1813 35.124C81.0605 50.9267 74.2242 70.2357 57.8961 77.6467C44.3971 83.7732 28.3323 79.7392 19.4066 67.9263ZM71.8157 91.892C69.431 91.892 67.8964 91.892 65.6547 91.892L63.6181 86.2879C65.6131 86.1857 67.5816 85.9383 69.5113 85.5511L71.8157 91.892ZM95.7023 46.5C95.729 64.0121 82.3373 78.4236 65.2888 80.2793C77.2856 72.5103 83.9355 58.4783 82.0371 44.1365C87.0735 39.6119 90.0494 34.5408 91.7488 30.6949C96.089 38.7947 95.7023 46.5 95.7023 46.5Z" fill="#FF931E"/>
</svg>
