<svg width="40" height="40" viewBox="0 0 40 40" fill="none" xmlns="http://www.w3.org/2000/svg">
<path d="M30.9206 17.5557H28.7619C28.6349 17.5557 28.5079 17.6826 28.4444 17.8096L27.5555 23.3969C27.5555 23.5239 27.619 23.5874 27.746 23.5874H28.8889C29.0159 23.5874 29.0793 23.5239 29.0793 23.3969L29.3333 21.8096C29.3333 21.6827 29.4603 21.5557 29.6508 21.5557H30.3492C31.8095 21.5557 32.6349 20.8573 32.8254 19.4604C32.9524 18.889 32.8254 18.3811 32.5714 18.0636C32.1905 17.7461 31.619 17.5557 30.9206 17.5557ZM31.1746 19.6509C31.0476 20.4128 30.4762 20.4128 29.9047 20.4128H29.5238L29.7778 18.9525C29.7778 18.889 29.8413 18.8255 29.9682 18.8255H30.0952C30.4762 18.8255 30.8571 18.8255 31.0476 19.0795C31.1746 19.143 31.1746 19.3334 31.1746 19.6509Z" fill="#139AD6"/>
<path d="M15.365 17.5557H13.2063C13.0793 17.5557 12.9523 17.6826 12.8888 17.8096L11.9999 23.3969C11.9999 23.5239 12.0634 23.5874 12.1904 23.5874H13.2063C13.3332 23.5874 13.4602 23.4604 13.5237 23.3334L13.7777 21.8096C13.7777 21.6827 13.9047 21.5557 14.0951 21.5557H14.7936C16.2539 21.5557 17.0793 20.8573 17.2698 19.4604C17.3967 18.889 17.2697 18.3811 17.0158 18.0636C16.6348 17.7461 16.1269 17.5557 15.365 17.5557ZM15.619 19.6509C15.492 20.4128 14.9205 20.4128 14.3491 20.4128H14.0317L14.2856 18.9525C14.2856 18.889 14.3491 18.8255 14.4761 18.8255H14.6031C14.984 18.8255 15.365 18.8255 15.5555 19.0795C15.619 19.143 15.6824 19.3334 15.619 19.6509Z" fill="#263B80"/>
<path d="M21.9048 19.5874H20.8889C20.8254 19.5874 20.6985 19.6509 20.6985 19.7144L20.635 20.0319L20.5715 19.9049C20.3175 19.5874 19.8731 19.4604 19.3651 19.4604C18.2223 19.4604 17.2064 20.3493 17.0159 21.5557C16.8889 22.1906 17.0794 22.762 17.3969 23.143C17.7143 23.524 18.1588 23.6509 18.7302 23.6509C19.6826 23.6509 20.1905 23.0795 20.1905 23.0795L20.127 23.397C20.127 23.5239 20.1905 23.5874 20.3175 23.5874H21.2699C21.3969 23.5874 21.5238 23.4605 21.5873 23.3335L22.1588 19.7779C22.0953 19.7144 21.9683 19.5874 21.9048 19.5874ZM20.4445 21.6192C20.3175 22.1906 19.8731 22.6351 19.2381 22.6351C18.9207 22.6351 18.6667 22.5081 18.5397 22.3811C18.4127 22.1906 18.3492 21.9366 18.3492 21.6192C18.4127 21.0478 18.9207 20.6033 19.4921 20.6033C19.8096 20.6033 20 20.7303 20.1905 20.8573C20.381 21.0478 20.4445 21.3652 20.4445 21.6192Z" fill="#263B80"/>
<path d="M37.3969 19.5869H36.381C36.3175 19.5869 36.1905 19.6504 36.1905 19.7139L36.127 20.0314L36.0636 19.9044C35.8096 19.5869 35.3651 19.46 34.8572 19.46C33.7144 19.46 32.6985 20.3489 32.508 21.5552C32.381 22.1901 32.5715 22.7616 32.889 23.1425C33.2064 23.5235 33.6509 23.6504 34.2223 23.6504C35.1747 23.6504 35.6826 23.079 35.6826 23.079L35.6191 23.3965C35.6191 23.5235 35.6826 23.587 35.8096 23.587H36.762C36.889 23.587 37.0159 23.46 37.0794 23.333L37.6509 19.7774C37.5874 19.7139 37.5239 19.5869 37.3969 19.5869ZM35.9366 21.6187C35.8096 22.1901 35.3651 22.6346 34.7302 22.6346C34.4128 22.6346 34.1588 22.5076 34.0318 22.3806C33.9048 22.1901 33.8413 21.9362 33.8413 21.6187C33.9048 21.0473 34.4128 20.6028 34.9842 20.6028C35.3017 20.6028 35.4921 20.7298 35.6826 20.8568C35.9366 21.0473 36.0001 21.3647 35.9366 21.6187Z" fill="#139AD6"/>
<path d="M27.4286 19.5874H26.3492C26.2223 19.5874 26.1588 19.6509 26.0953 19.7144L24.6984 21.8731L24.0635 19.8414C24 19.7144 23.9365 19.6509 23.7461 19.6509H22.7302C22.6032 19.6509 22.5397 19.7779 22.5397 19.9049L23.6826 23.2699L22.6032 24.7937C22.5397 24.9207 22.6032 25.1112 22.7302 25.1112H23.7461C23.873 25.1112 23.9365 25.0477 24 24.9842L27.4921 19.9684C27.6826 19.7779 27.5556 19.5874 27.4286 19.5874Z" fill="#263B80"/>
<path d="M38.603 17.7461L37.7141 23.4604C37.7141 23.5874 37.7776 23.6509 37.9046 23.6509H38.7935C38.9205 23.6509 39.0475 23.5239 39.111 23.3969L39.9999 17.8096C39.9999 17.6826 39.9364 17.6191 39.8094 17.6191H38.7935C38.73 17.5557 38.6665 17.6191 38.603 17.7461Z" fill="#139AD6"/>
<path d="M7.30159 15.6506C6.85714 15.1426 6.03175 14.8887 4.88889 14.8887H1.71429C1.52381 14.8887 1.33333 15.0791 1.26984 15.2696L0 23.5871C0 23.7776 0.126984 23.9045 0.253968 23.9045H2.22222L2.73016 20.7934V20.9204C2.79365 20.7299 2.98413 20.5395 3.1746 20.5395H4.12698C5.96825 20.5395 7.36508 19.7776 7.80952 17.6823C7.80952 17.6188 7.80952 17.5553 7.80952 17.4918C7.74603 17.4918 7.74603 17.4918 7.80952 17.4918C7.87302 16.6664 7.74603 16.1585 7.30159 15.6506Z" fill="#263B80"/>
<path d="M7.74587 17.4922C7.74587 17.5557 7.74587 17.6192 7.74587 17.6827C7.30143 19.8414 5.9046 20.5398 4.06333 20.5398H3.11095C2.92047 20.5398 2.73 20.7303 2.66651 20.9208L2.03159 24.7938C2.03159 24.9208 2.09508 25.0477 2.28555 25.0477H3.93635C4.12682 25.0477 4.3173 24.9208 4.3173 24.7303V24.6668L4.63476 22.6985V22.5716C4.63476 22.3811 4.82524 22.2541 5.01571 22.2541H5.26968C6.85698 22.2541 8.12682 21.6192 8.44428 19.7144C8.57127 18.9525 8.50778 18.2541 8.12682 17.8096C8.06333 17.6827 7.93635 17.5557 7.74587 17.4922Z" fill="#139AD6"/>
<path d="M7.30162 17.3013C7.23813 17.3013 7.17464 17.2378 7.11115 17.2378C7.04765 17.2378 6.98416 17.2378 6.92067 17.1743C6.6667 17.1108 6.41273 17.1108 6.09527 17.1108H3.61908C3.55559 17.1108 3.4921 17.1108 3.42861 17.1743C3.30162 17.2378 3.23813 17.3648 3.23813 17.4918L2.73019 20.7934V20.9204C2.79369 20.7299 2.98416 20.5394 3.17464 20.5394H4.12702C5.96829 20.5394 7.36511 19.7775 7.80956 17.6823C7.80956 17.6188 7.80956 17.5553 7.87305 17.4918C7.74607 17.4283 7.68257 17.3648 7.55559 17.3648C7.36511 17.3013 7.36511 17.3013 7.30162 17.3013Z" fill="#232C65"/>
</svg>
