<svg width="200" height="200" viewBox="0 0 200 200" fill="none" xmlns="http://www.w3.org/2000/svg">
<g clip-path="url(#clip0)">
<path d="M31.4352 74.105C26.318 83.8456 22.3047 94.903 19.4805 107.079C13.9766 130.76 16.7715 149.909 27.7883 163.991C40.8938 180.744 65.1602 189.5 99.9137 190.014C99.9426 190.014 99.9711 190.014 100 190.014C100.029 190.014 100.058 190.014 100.087 190.014C134.841 189.5 159.107 180.745 172.213 163.991C183.229 149.909 186.024 130.76 180.52 107.079C177.69 94.8956 173.676 83.837 168.565 74.1054C195.663 61.6124 199.797 23.8507 199.971 22.1226C200.222 19.6421 198.875 17.2749 196.615 16.2226C195.598 15.7491 171.463 4.72335 149.648 13.1437C139.867 16.9183 132.189 23.9089 126.755 33.9573C122.363 32.212 117.799 30.8905 113.118 30.0319C104.416 28.4409 95.591 28.4409 86.8903 30.0312C82.0215 30.9159 77.3828 32.3128 73.2461 33.9566C67.8129 23.9085 60.1344 16.9183 50.3543 13.1437C28.5391 4.72413 4.40235 15.7491 3.38595 16.2226C1.12618 17.2749 -0.220302 19.6421 0.0296979 22.1226C0.203917 23.8507 4.3379 61.612 31.4352 74.105ZM153.811 24.098C166.365 19.2253 180.758 22.928 187.623 25.287C185.819 34.7097 179.831 56.7581 162.519 63.9523C155.798 53.989 147.66 45.3991 137.272 39.155C141.34 31.8398 146.886 26.7855 153.811 24.098ZM88.9906 41.5601C113.618 37.0601 138.655 47.1038 155.044 74.0015C161.207 84.08 165.938 96.1015 169.105 109.732C180.574 159.08 150.482 177.528 100 178.296C69.0113 177.825 47.8227 170.583 37.0188 156.771C28.2934 145.617 26.2332 129.791 30.8957 109.73C38.3582 77.5577 56.461 47.5456 88.9906 41.5601ZM46.134 24.0761C53.0844 26.7589 58.6496 31.8206 62.7277 39.155C52.3645 45.3757 44.1168 54.0991 37.4844 63.9511C20.2387 56.7636 14.2082 34.6859 12.3848 25.2702C19.2188 22.9058 33.5238 19.2097 46.134 24.0761Z" fill="#FF931E"/>
<path d="M116.658 162.728C127.978 157.372 133.898 148.046 133.328 136.466C132.595 121.558 122.425 111.657 107.991 107.419C102.763 105.884 97.2379 105.884 92.0106 107.419C87.7797 108.661 81.661 111.094 76.5376 115.63C70.4911 120.984 67.0801 128.189 66.6731 136.466C65.4766 160.762 94.5965 173.167 116.658 162.728ZM78.377 137.042C78.9301 125.798 87.8911 120.841 95.3122 118.662C98.3801 117.762 101.621 117.762 104.689 118.662C112.109 120.841 121.071 125.798 121.624 137.042C121.959 143.862 118.696 148.8 111.647 152.135C104.354 155.585 95.6473 155.585 88.3543 152.135C81.3051 148.8 78.0415 143.862 78.377 137.042Z" fill="#FF931E"/>
<path d="M90.0227 142.225C93.2587 142.225 95.8821 139.601 95.8821 136.365C95.8821 133.129 93.2587 130.506 90.0227 130.506C86.7867 130.506 84.1633 133.129 84.1633 136.365C84.1633 139.601 86.7867 142.225 90.0227 142.225Z" fill="#FF931E"/>
<path d="M109.977 142.225C113.213 142.225 115.837 139.601 115.837 136.365C115.837 133.129 113.213 130.506 109.977 130.506C106.741 130.506 104.118 133.129 104.118 136.365C104.118 139.601 106.741 142.225 109.977 142.225Z" fill="#FF931E"/>
<path d="M60.3352 101.783C63.5713 101.783 66.1946 99.1594 66.1946 95.9233C66.1946 92.6873 63.5713 90.064 60.3352 90.064C57.0992 90.064 54.4758 92.6873 54.4758 95.9233C54.4758 99.1594 57.0992 101.783 60.3352 101.783Z" fill="#FF931E"/>
<path d="M139.665 101.783C142.901 101.783 145.524 99.1594 145.524 95.9233C145.524 92.6873 142.901 90.064 139.665 90.064C136.429 90.064 133.805 92.6873 133.805 95.9233C133.805 99.1594 136.429 101.783 139.665 101.783Z" fill="#FF931E"/>
</g>
<defs>
<clipPath id="clip0">
<rect width="200" height="200" fill="white"/>
</clipPath>
</defs>
</svg>
