<svg width="101" height="100" viewBox="0 0 101 100" fill="none" xmlns="http://www.w3.org/2000/svg">
<g clip-path="url(#clip0)">
<path d="M15.8443 37.0525C13.2651 41.9228 11.2423 47.4515 9.81876 53.5394C7.04462 65.3802 8.45335 74.9543 14.0062 81.9957C20.6117 90.3722 32.8428 94.7498 50.3597 95.007C50.3743 95.0072 50.3886 95.0072 50.4034 95.0072C50.418 95.0072 50.4323 95.0072 50.4471 95.007C67.9642 94.75 80.1952 90.3724 86.8008 81.9957C92.3533 74.9543 93.762 65.38 90.988 53.5396C89.5614 47.4478 87.5382 41.9185 84.9621 37.0527C98.6204 30.8062 100.704 11.9253 100.792 11.0613C100.918 9.82105 100.239 8.63746 99.1002 8.11129C98.5877 7.87457 86.4226 2.36168 75.4272 6.57183C70.4975 8.45914 66.6273 11.9544 63.8888 16.9787C61.6746 16.106 59.3744 15.4453 57.0149 15.016C52.6292 14.2205 48.1809 14.2205 43.7955 15.0156C41.3415 15.458 39.0034 16.1564 36.9184 16.9783C34.1799 11.9543 30.3096 8.45914 25.3802 6.57183C14.3846 2.36207 2.2189 7.87457 1.7066 8.11129C0.567606 8.63746 -0.111066 9.82105 0.014942 11.0613C0.102754 11.9253 2.18641 30.806 15.8443 37.0525ZM77.5257 12.049C83.8534 9.61265 91.1077 11.464 94.5682 12.6435C93.6588 17.3548 90.6403 28.3791 81.9149 31.9761C78.5274 26.9945 74.4255 22.6996 69.1896 19.5775C71.2398 15.9199 74.0354 13.3927 77.5257 12.049ZM44.8541 20.78C57.2673 18.53 69.8866 23.5519 78.1472 37.0007C81.2537 42.04 83.6382 48.0507 85.2344 54.866C91.0152 79.54 75.8476 88.764 50.4032 89.1478C34.7839 88.9123 24.1041 85.2914 18.6586 78.3857C14.2607 72.8087 13.2224 64.8957 15.5724 54.8648C19.3337 38.7789 28.4581 23.7728 44.8541 20.78ZM23.253 12.038C26.7562 13.3794 29.5613 15.9103 31.6168 19.5775C26.3934 22.6878 22.2363 27.0496 18.8933 31.9755C10.2009 28.3818 7.16137 17.3429 6.2423 12.6351C9.68685 11.4529 16.8971 9.60484 23.253 12.038Z" fill="#FF931E"/>
<path d="M58.7995 81.3638C64.505 78.686 67.4888 74.0227 67.2015 68.2331C66.832 60.7792 61.7064 55.8286 54.4308 53.7093C51.7961 52.9419 49.0111 52.9419 46.3763 53.7093C44.2438 54.3304 41.1598 55.547 38.5774 57.8149C35.5298 60.4919 33.8106 64.0944 33.6054 68.2331C33.0023 80.381 47.6797 86.5833 58.7995 81.3638ZM39.5046 68.5208C39.7833 62.8991 44.2999 60.4204 48.0404 59.3311C49.5868 58.8808 51.2204 58.8808 52.7667 59.3311C56.5068 60.4204 61.0236 62.8991 61.3024 68.5208C61.4713 71.9311 59.8265 74.3997 56.2737 76.0673C52.5978 77.7925 48.2093 77.7925 44.5335 76.0673C40.9804 74.3997 39.3354 71.9311 39.5046 68.5208Z" fill="#FF931E"/>
<path d="M45.3743 71.1121C47.0054 71.1121 48.3276 69.8005 48.3276 68.1824C48.3276 66.5644 47.0054 65.2527 45.3743 65.2527C43.7432 65.2527 42.421 66.5644 42.421 68.1824C42.421 69.8005 43.7432 71.1121 45.3743 71.1121Z" fill="#FF931E"/>
<path d="M55.4321 71.1121C57.0632 71.1121 58.3854 69.8005 58.3854 68.1824C58.3854 66.5644 57.0632 65.2527 55.4321 65.2527C53.8011 65.2527 52.4788 66.5644 52.4788 68.1824C52.4788 69.8005 53.8011 71.1121 55.4321 71.1121Z" fill="#FF931E"/>
<path d="M30.4109 50.8914C32.0419 50.8914 33.3642 49.5798 33.3642 47.9617C33.3642 46.3437 32.0419 45.032 30.4109 45.032C28.7798 45.032 27.4575 46.3437 27.4575 47.9617C27.4575 49.5798 28.7798 50.8914 30.4109 50.8914Z" fill="#FF931E"/>
<path d="M70.3956 50.8914C72.0267 50.8914 73.3489 49.5798 73.3489 47.9617C73.3489 46.3437 72.0267 45.032 70.3956 45.032C68.7645 45.032 67.4423 46.3437 67.4423 47.9617C67.4423 49.5798 68.7645 50.8914 70.3956 50.8914Z" fill="#FF931E"/>
</g>
<defs>
<clipPath id="clip0">
<rect width="100.806" height="100" fill="white"/>
</clipPath>
</defs>
</svg>
