<svg width="40" height="40" viewBox="0 0 40 40" fill="none" xmlns="http://www.w3.org/2000/svg">
<g clip-path="url(#clip0)">
<path d="M20.0001 40.0003C31.0456 40.0003 39.9998 31.0461 39.9998 20.0006C39.9998 8.95512 31.0456 0.000976562 20.0001 0.000976562C8.95463 0.000976562 0.000488281 8.95512 0.000488281 20.0006C0.000488281 31.0461 8.95463 40.0003 20.0001 40.0003Z" fill="#CB2027"/>
<path d="M21.6143 26.7819C20.1024 26.665 19.4671 25.9152 18.2813 25.1954C17.6296 28.6147 16.8331 31.8925 14.4741 33.6048C13.745 28.4368 15.5429 24.5551 16.3779 20.4349C14.9547 18.0391 16.549 13.217 19.5508 14.4052C23.2454 15.8662 16.3522 23.3134 20.9797 24.2435C25.8108 25.2147 27.7831 15.8608 24.7869 12.8184C20.4582 8.42578 12.1867 12.7185 13.2038 19.0067C13.4516 20.544 15.0402 21.0107 13.8384 23.1319C11.068 22.5184 10.2416 20.3333 10.3478 17.4202C10.5193 12.6519 14.6324 9.31314 18.758 8.8511C23.9755 8.26713 28.8726 10.767 29.5485 15.6747C30.309 21.2139 27.193 27.2126 21.6143 26.7819Z" fill="#F1F2F2"/>
</g>
<defs>
<clipPath id="clip0">
<rect width="40" height="40" fill="white"/>
</clipPath>
</defs>
</svg>
