<svg width="102" height="82" viewBox="0 0 102 82" fill="none" xmlns="http://www.w3.org/2000/svg">
<path d="M86.7828 43.9461C88.422 43.9461 89.7507 42.6259 89.7507 40.9975C89.7507 39.369 88.422 38.0488 86.7828 38.0488C85.1437 38.0488 83.815 39.369 83.815 40.9975C83.815 42.6259 85.1437 43.9461 86.7828 43.9461Z" fill="#FF931E"/>
<path d="M9.99428 59.9104C14.8554 59.0807 20.751 56.3289 24.3442 51.8069C25.8254 53.133 27.3324 54.3959 28.8565 55.5842L24.6248 58.1561C19.8993 61.0178 20.4874 68.1875 25.7801 70.199C32.6712 72.8233 40.3546 70.551 44.7518 64.9615C46.8046 65.7883 48.8613 66.4651 50.9012 66.9854C49.4718 72.6905 50.1853 78.3246 55.6405 80.1569C68.5032 84.4768 77.5732 72.0934 84.6645 61.2448C90.276 57.9864 95.3982 53.7112 95.5469 53.5145C103.63 46.6924 103.683 35.3481 95.5459 28.4801C92.1555 25.6213 88.5036 22.9797 84.6647 20.7508C78.2292 10.9057 68.9318 -2.62654 55.6409 1.8387C50.1928 3.66819 49.4647 9.27171 50.9004 15.0055C48.8646 15.5254 46.8629 16.1803 44.7503 17.0317C40.3498 11.4405 32.6665 9.17444 25.7821 11.7957C20.5697 13.7768 19.8239 20.841 24.625 23.8395L28.8567 26.4116C27.3322 27.5998 25.8254 28.8629 24.3444 30.1889C20.7668 25.6864 14.8554 22.9149 9.98956 22.0846C3.5281 20.9895 -1.3492 27.9084 1.80986 33.6602C4.33337 38.2549 4.33337 43.741 1.80986 48.3358C-1.349 54.0871 3.52751 61.0065 9.99428 59.9104ZM47.2216 22.399C56.8004 18.6026 65.8275 18.6004 75.8827 22.9196C68.5278 33.8584 68.526 48.1342 75.8825 59.0758C66.2847 63.1979 57.2599 63.5776 47.2186 59.5922C39.6491 48.3754 39.6416 33.6272 47.2216 22.399ZM92.1718 33.3899C96.5061 37.4162 96.8806 43.3719 93.0253 47.7321C91.5217 49.4311 86.1713 53.5901 81.2349 56.4022C74.6508 47.1717 74.6648 34.8039 81.2349 25.5936C85.7901 28.1852 90.4579 31.7979 92.1718 33.3899ZM27.903 64.6918C27.2367 64.4387 27.1489 63.5547 27.7423 63.1748L34.0774 59.3248C35.5946 60.3172 37.4965 61.4555 39.1636 62.3469C36.2583 65.1848 31.8742 66.2039 27.903 64.6918ZM57.5417 74.5699C57.0213 74.3951 56.7234 74.1481 56.5133 73.7164C55.9803 72.6215 56.0782 70.5836 56.7521 68.0567C62.2404 68.6531 67.9216 68.0905 73.9885 66.1031C68.9389 72.4951 63.6509 76.6217 57.5417 74.5699ZM56.5133 8.27913C56.7234 7.84768 57.0213 7.60042 57.5419 7.42561C63.6517 5.37288 68.9385 9.49964 73.9885 15.8926C67.9454 13.9065 62.2264 13.3492 56.7521 13.9391C56.0782 11.4119 55.9803 9.37405 56.5133 8.27913ZM27.9044 17.3032C31.8659 15.7949 36.2516 16.8047 39.1634 19.6483C37.4725 20.5524 35.5576 21.7026 34.0774 22.6709L27.7425 18.8207C27.1493 18.4412 27.2357 17.5573 27.9044 17.3032ZM38.1555 27.0729C34.76 35.9867 34.7535 45.9916 38.1555 54.9225C34.2046 52.4215 30.4454 49.4381 27.0304 46.252C24.2783 43.6836 24.0507 39.5424 26.1629 36.7112C27.1393 35.3973 32.6559 30.5549 38.1555 27.0729ZM8.98661 27.8969C12.9994 28.585 18.0098 31.0574 20.3762 34.7969C18.3236 38.6147 18.2923 43.3219 20.376 47.1987C19.2246 49.0186 16.1756 52.5032 9.12365 54.0719C7.41309 54.4528 6.24121 52.5793 7.02049 51.1604C10.5154 44.7971 10.5154 37.1987 7.02049 30.8354C6.24023 29.4151 7.41151 27.6297 8.98661 27.8969Z" fill="#FF931E"/>
</svg>
