<svg width="200" height="200" viewBox="0 0 200 200" fill="none" xmlns="http://www.w3.org/2000/svg">
<g clip-path="url(#clip0)">
<path d="M99.9134 200C99.9423 200 99.9712 200 100 200C100.029 200 100.058 200 100.087 200C127.833 199.59 147.254 192.539 157.811 179.044C166.724 167.65 169.003 152.227 164.583 133.205C161.602 120.367 156.98 109.135 150.823 99.7389C153.952 88.8792 157.621 72.1928 158.438 62.8741C159.783 47.587 158.738 32.9245 155.497 21.5874C151.734 8.42447 145.156 0.779547 136.973 0.0611877C124.417 -1.0353 117.417 13.1069 115.117 17.7534C109.123 29.851 105.534 44.7217 104.738 60.7452C104.725 61.0124 104.488 65.5909 104.275 70.8268C101.427 70.617 98.5735 70.6174 95.7259 70.8272C95.5122 65.592 95.2763 61.0159 95.2626 60.7577C94.4665 44.7213 90.8775 29.8506 84.8845 17.7549C82.5833 13.1065 75.5814 -1.04311 63.0271 0.0611877C54.8446 0.779547 48.2661 8.42408 44.5036 21.587C41.2626 32.9241 40.2181 47.5866 41.5622 62.8725C42.3802 72.1944 46.0505 88.8854 49.1794 99.7452C43.0228 109.139 38.3954 120.376 35.4181 133.203C30.9978 152.227 33.2759 167.65 42.1899 179.044C52.7466 192.539 72.1681 199.589 99.9134 200ZM116.442 61.3389C117.159 46.8963 120.332 33.6237 125.618 22.9538C130.623 12.8436 134.24 11.5854 135.948 11.7346C138.268 11.9381 141.729 16.0596 144.229 24.8081C147.086 34.8003 147.986 47.9545 146.765 61.8487C146.203 68.2514 144.043 79.0143 141.736 88.3256C134.632 80.9858 125.721 75.6448 115.921 72.8764C116.145 67.0936 116.427 61.6389 116.442 61.3389ZM55.7704 24.8081C56.9165 20.7987 60.2833 11.7241 64.3064 11.7241C66.1063 11.7241 69.6138 13.3221 74.3825 22.9557C79.6685 33.6237 82.8411 46.8963 83.5587 61.3514C83.5739 61.6417 83.8552 67.094 84.0794 72.8764C74.311 75.6327 65.3903 80.962 58.2638 88.3256C55.9575 79.0143 53.7974 68.251 53.2357 61.8479C52.0138 47.9542 52.9142 34.7999 55.7704 24.8081ZM46.8329 135.855C53.5325 106.986 70.8892 82.3858 100.002 82.3858C129.279 82.3858 146.524 107.238 153.168 135.856C156.747 151.257 155.203 163.359 148.581 171.824C140.325 182.377 123.98 187.914 100 188.281C76.0208 187.914 59.6755 182.377 51.4192 171.824C44.797 163.358 43.2536 151.257 46.8329 135.855Z" fill="#FF931E"/>
<path d="M71.468 126.637C74.704 126.637 77.3273 124.013 77.3273 120.777C77.3273 117.541 74.704 114.918 71.468 114.918C68.2319 114.918 65.6086 117.541 65.6086 120.777C65.6086 124.013 68.2319 126.637 71.468 126.637Z" fill="#FF931E"/>
<path d="M128.532 126.637C131.768 126.637 134.391 124.013 134.391 120.777C134.391 117.541 131.768 114.918 128.532 114.918C125.296 114.918 122.673 117.541 122.673 120.777C122.673 124.013 125.296 126.637 128.532 126.637Z" fill="#FF931E"/>
<path d="M74.466 165.661C76.8168 172.182 83.0551 176.564 89.989 176.564C93.725 176.564 97.2574 175.291 100.09 173.098C102.923 175.291 106.455 176.564 110.191 176.564C117.125 176.564 123.364 172.183 125.714 165.661C126.812 162.617 125.234 159.26 122.189 158.162C119.144 157.065 115.787 158.643 114.69 161.687C114.009 163.576 112.201 164.846 110.191 164.846C108.327 164.846 106.638 163.752 105.859 162.087V152.749C107.915 151.951 109.801 150.732 111.402 149.126C114.233 146.288 116.191 143.269 117.222 140.153C118.862 135.195 116.907 129.741 112.468 126.889C108.755 124.504 104.453 123.244 100.027 123.244C95.4855 123.244 91.089 124.566 87.3129 127.068C83.1547 129.823 81.2637 135.051 82.714 139.781C83.7097 143.03 85.7078 146.174 88.6519 149.126C90.239 150.717 92.1054 151.93 94.1402 152.728V162.433C93.3 163.902 91.7203 164.845 89.9887 164.845C87.9789 164.845 86.1711 163.576 85.4898 161.687C84.3926 158.643 81.0355 157.065 77.9906 158.162C74.9469 159.26 73.3687 162.617 74.466 165.661ZM100.028 134.962C102.159 134.962 104.228 135.555 106.025 136.678C105.544 137.976 104.539 139.413 103.105 140.851C101.419 142.542 98.6371 142.542 96.9504 140.851C95.5148 139.412 94.5125 137.977 94.0312 136.678C95.8265 135.554 97.8933 134.962 100.028 134.962Z" fill="#FF931E"/>
</g>
<defs>
<clipPath id="clip0">
<rect width="200" height="200" fill="white"/>
</clipPath>
</defs>
</svg>
