<svg width="102" height="100" viewBox="0 0 102 100" fill="none" xmlns="http://www.w3.org/2000/svg">
<path d="M39.7533 24.9766C41.3827 24.8924 42.6349 23.5139 42.5501 21.8975C42.4653 20.2811 41.0756 19.0389 39.4461 19.123C37.8167 19.2072 36.5645 20.5857 36.6494 22.2021C36.7342 23.8186 38.1238 25.0607 39.7533 24.9766Z" fill="#FF931E"/>
<path d="M62.1443 24.9727C63.7738 24.8885 65.0259 23.51 64.9411 21.8936C64.8563 20.2772 63.4666 19.035 61.8372 19.1191C60.2077 19.2033 58.9556 20.5818 59.0404 22.1982C59.1252 23.8146 60.5149 25.0568 62.1443 24.9727Z" fill="#FF931E"/>
<path d="M65.0068 100C66.6378 100 67.9601 98.6883 67.9601 97.0703V89.9176C71.0648 87.624 78.9758 81.6541 86.3242 73.2301C96.3393 61.7492 101.335 50.3455 101.173 39.3363C101.021 28.985 97.2162 20.725 89.8627 14.7863C84.4874 10.4453 78.3499 8.30332 73.7949 7.24941L72.9947 6.11836C70.2857 2.2873 65.8512 0 61.132 0H40.4155C35.6963 0 31.2618 2.2873 28.5534 6.11777L27.7527 7.24941C23.1977 8.30332 17.0601 10.4451 11.6849 14.7863C4.33135 20.7252 0.525905 28.985 0.374302 39.3361C0.212263 50.3455 5.20809 61.7492 15.2232 73.2301C22.5482 81.6271 30.4323 87.5859 33.5577 89.8957V97.0703C33.5577 98.6883 34.88 100 36.5111 100C38.1421 100 39.4644 98.6883 39.4644 97.0703V48.3086C42.4488 49.6906 45.0105 49.9961 47.8205 49.9961V62.9955L44.6396 66.151C42.7731 68.0025 44.121 71.1522 46.7277 71.1522C48.2501 71.1522 48.7964 70.3135 50.7736 68.3521L52.7017 70.2648C53.8549 71.409 55.7249 71.4092 56.8783 70.2648C58.0317 69.1207 58.0317 67.2658 56.8783 66.1217L53.7271 62.9955V49.9961C56.7166 49.9961 59.2031 49.6326 62.0535 48.3219V97.0703C62.0535 98.6883 63.3758 100 65.0068 100ZM95.2672 39.4217C95.5291 57.2041 79.7397 73.1244 67.9603 82.5037V43.974C68.9644 42.8647 68.4547 43.507 78.0803 29.9238C81.1866 25.543 81.5526 19.832 79.1807 15.1361C86.9462 18.4896 95.0613 25.358 95.2672 39.4217ZM40.4155 5.85938H61.132C63.9276 5.85938 66.5545 7.21406 68.1596 9.48379L73.2534 16.6834C75.343 19.6359 75.3412 23.6021 73.2491 26.5527C73.2491 26.5527 69.2802 32.1533 69.2647 32.1752C58.6619 33.0639 52.8423 28.7395 52.5907 28.5477L52.6072 28.5605C51.4877 27.8596 50.0611 27.859 48.9408 28.5605L48.9573 28.5477C48.7057 28.7395 42.8873 33.0637 32.2831 32.1752L28.2987 26.5527C26.2065 23.6021 26.2048 19.6357 28.2945 16.683L33.3886 9.4832C34.9929 7.21406 37.6199 5.85938 40.4155 5.85938ZM6.28034 39.4215C6.48609 25.358 14.6014 18.4895 22.3668 15.1361C19.9949 19.8322 20.361 25.5428 23.4669 29.9232C33.0553 43.4537 32.5615 42.8357 33.5577 43.942V82.4805C21.7817 73.0978 6.01887 57.1893 6.28034 39.4215ZM53.7271 44.1367V42.3078C53.7271 40.6898 52.4048 39.3781 50.7738 39.3781C49.1428 39.3781 47.8205 40.6898 47.8205 42.3078V44.1367C44.3344 44.1367 41.2868 43.291 38.5624 40.6639C37.6246 39.7658 37.1438 39.0346 36.499 38.1248C43.4533 37.8607 48.3168 35.7232 50.7736 34.3352C53.23 35.7232 58.0933 37.8609 65.0485 38.1248C64.41 39.0258 63.9277 39.7646 62.9544 40.6943C60.6392 42.9143 57.5902 44.1367 54.3691 44.1367H53.7271Z" fill="#FF931E"/>
</svg>
