<svg width="68" height="100" viewBox="0 0 68 100" fill="none" xmlns="http://www.w3.org/2000/svg">
<path d="M33.7308 99.9999C33.7453 100 33.7599 100 33.7745 100C33.789 100 33.8036 100 33.8182 99.9999C47.8029 99.7949 57.5918 96.2697 62.9128 89.5222C67.4056 83.8251 68.5541 76.1136 66.3261 66.6025C64.8238 60.1833 62.4943 54.5673 59.3909 49.8695C60.9678 44.4396 62.8172 36.0964 63.2292 31.437C63.9067 23.7935 63.3803 16.4622 61.7467 10.7937C59.8503 4.21223 56.5345 0.389774 52.4099 0.0305938C46.0813 -0.517648 42.5531 6.55345 41.3938 8.87669C38.3726 14.9255 36.5636 22.3609 36.1627 30.3726C36.1558 30.5062 36.0367 32.7954 35.929 35.4134C34.4939 35.3085 33.0554 35.3087 31.6201 35.4136C31.5124 32.796 31.3935 30.5079 31.3866 30.3788C30.9854 22.3607 29.1764 14.9253 26.1557 8.87747C24.9958 6.55325 21.4666 -0.521555 15.1389 0.0305938C11.0147 0.389774 7.69887 4.21204 5.80245 10.7935C4.16887 16.462 3.64239 23.7933 4.31988 31.4363C4.73217 36.0972 6.58212 44.4427 8.15919 49.8726C5.05605 54.5693 2.72372 60.1878 1.22304 66.6017C-1.00494 76.1134 0.143306 83.8249 4.63628 89.522C9.95717 96.2695 19.7462 99.7947 33.7308 99.9999ZM42.0617 30.6695C42.423 23.4482 44.0223 16.8118 46.687 11.4769C49.2095 6.42181 51.0326 5.7927 51.8934 5.86731C53.0628 5.96907 54.807 8.02981 56.0675 12.404C57.5071 17.4001 57.9609 23.9773 57.3453 30.9243C57.0621 34.1257 55.9733 39.5072 54.8109 44.1628C51.2301 40.4929 46.7387 37.8224 41.799 36.4382C41.912 33.5468 42.054 30.8195 42.0617 30.6695ZM11.4813 12.404C12.0589 10.3993 13.7559 5.86204 15.7837 5.86204C16.6909 5.86204 18.4588 6.66106 20.8624 11.4779C23.5267 16.8118 25.1258 23.4482 25.4875 30.6757C25.4951 30.8208 25.6369 33.547 25.7499 36.4382C20.8263 37.8163 16.33 40.481 12.738 44.1628C11.5756 39.5072 10.4868 34.1255 10.2037 30.924C9.58781 23.9771 10.0416 17.3999 11.4813 12.404ZM6.97649 67.9273C10.3533 53.4931 19.1016 41.1929 33.7753 41.1929C48.5322 41.1929 57.2238 53.6189 60.5726 67.9281C62.3765 75.6286 61.5986 81.6794 58.2608 85.912C54.0996 91.1886 45.861 93.957 33.7745 94.1407C21.6881 93.9572 13.4496 91.1886 9.28814 85.912C5.95031 81.6792 5.17241 75.6286 6.97649 67.9273Z" fill="#FF931E"/>
<path d="M19.3936 63.3184C21.0247 63.3184 22.3469 62.0067 22.3469 60.3887C22.3469 58.7707 21.0247 57.459 19.3936 57.459C17.7625 57.459 16.4403 58.7707 16.4403 60.3887C16.4403 62.0067 17.7625 63.3184 19.3936 63.3184Z" fill="#FF931E"/>
<path d="M48.1554 63.3184C49.7865 63.3184 51.1087 62.0067 51.1087 60.3887C51.1087 58.7707 49.7865 57.459 48.1554 57.459C46.5244 57.459 45.2021 58.7707 45.2021 60.3887C45.2021 62.0067 46.5244 63.3184 48.1554 63.3184Z" fill="#FF931E"/>
<path d="M20.9043 82.8304C22.0892 86.0909 25.2334 88.2817 28.7284 88.2817C30.6114 88.2817 32.3919 87.645 33.8197 86.5485C35.2475 87.645 37.028 88.2817 38.911 88.2817C42.406 88.2817 45.5503 86.0911 46.7351 82.8304C47.2884 81.3083 46.493 79.6296 44.9584 79.081C43.4235 78.5321 41.7316 79.3212 41.1786 80.8435C40.8352 81.788 39.924 82.4226 38.9108 82.4226C37.9711 82.4226 37.1199 81.8759 36.7273 81.0431V76.3743C37.7638 75.9755 38.7141 75.3655 39.5214 74.5626C40.948 73.1438 41.9348 71.6343 42.4546 70.0763C43.2815 67.5974 42.2961 64.87 40.0583 63.4442C38.1869 62.2519 36.0186 61.6216 33.7878 61.6216C31.4988 61.6216 29.2828 62.2827 27.3795 63.5337C25.2837 64.911 24.3305 67.5251 25.0616 69.8901C25.5634 71.5146 26.5705 73.0866 28.0545 74.5626C28.8544 75.3583 29.7951 75.9646 30.8207 76.3636V81.2163C30.3972 81.9507 29.601 82.4224 28.7282 82.4224C27.7152 82.4224 26.804 81.7878 26.4606 80.8433C25.9076 79.3212 24.2155 78.5321 22.6808 79.0808C21.1467 79.6296 20.3512 81.3081 20.9043 82.8304ZM33.7882 67.4806C34.8624 67.4806 35.9055 67.7771 36.8108 68.339C36.5685 68.9878 36.0621 69.7063 35.3395 70.4251C34.4893 71.2708 33.0873 71.2708 32.2371 70.4251C31.5136 69.7056 31.0084 68.9882 30.7658 68.339C31.6707 67.7769 32.7124 67.4806 33.7882 67.4806Z" fill="#FF931E"/>
</svg>
