<svg width="24" height="24" viewBox="0 0 24 24" fill="none" xmlns="http://www.w3.org/2000/svg">
<path d="M9 21.978C9.55228 21.978 10 21.5307 10 20.979C10 20.4272 9.55228 19.98 9 19.98C8.44772 19.98 8 20.4272 8 20.979C8 21.5307 8.44772 21.978 9 21.978Z" stroke="#00CAC9" stroke-width="2" stroke-linecap="round" stroke-linejoin="round"/>
<path d="M20 21.978C20.5523 21.978 21 21.5307 21 20.979C21 20.4272 20.5523 19.98 20 19.98C19.4477 19.98 19 20.4272 19 20.979C19 21.5307 19.4477 21.978 20 21.978Z" stroke="#00CAC9" stroke-width="2" stroke-linecap="round" stroke-linejoin="round"/>
<path d="M1 1H5L7.68 14.3766C7.77144 14.8366 8.02191 15.2497 8.38755 15.5438C8.75318 15.8378 9.2107 15.994 9.68 15.985H19.4C19.8693 15.994 20.3268 15.8378 20.6925 15.5438C21.0581 15.2497 21.3086 14.8366 21.4 14.3766L23 5.99501H6" stroke="#00CAC9" stroke-width="2" stroke-linecap="round" stroke-linejoin="round"/>
</svg>
