<svg width="40" height="40" viewBox="0 0 40 40" fill="none" xmlns="http://www.w3.org/2000/svg">
<g clip-path="url(#clip0)">
<path d="M14.6668 25.746L16.6986 14.3174H19.8732L17.9049 25.746H14.6668Z" fill="#3C58BF"/>
<path d="M14.6668 25.746L17.27 14.3174H19.8732L17.9049 25.746H14.6668Z" fill="#293688"/>
<path d="M29.3968 14.4445C28.7619 14.1905 27.746 13.9365 26.4762 13.9365C23.3016 13.9365 21.0159 15.5238 21.0159 17.8095C21.0159 19.5238 22.6032 20.4127 23.873 20.9841C25.1428 21.5556 25.5238 21.9365 25.5238 22.4445C25.5238 23.2064 24.5079 23.5873 23.619 23.5873C22.3492 23.5873 21.6508 23.3968 20.5714 22.9524L20.127 22.7619L19.6825 25.3651C20.4444 25.6826 21.8413 26 23.3016 26C26.6667 26 28.8889 24.4127 28.8889 22C28.8889 20.6667 28.0635 19.6508 26.1587 18.8254C25.0159 18.254 24.3174 17.9365 24.3174 17.3651C24.3174 16.8572 24.8889 16.3492 26.1587 16.3492C27.2381 16.3492 28 16.5397 28.5714 16.7937L28.8889 16.9206L29.3968 14.4445Z" fill="#3C58BF"/>
<path d="M29.3968 14.4445C28.7619 14.1905 27.746 13.9365 26.4762 13.9365C23.3016 13.9365 21.5873 15.5238 21.5873 17.8095C21.5873 19.5238 22.6032 20.4127 23.873 20.9841C25.1428 21.5556 25.5238 21.9365 25.5238 22.4445C25.5238 23.2064 24.5079 23.5873 23.619 23.5873C22.3492 23.5873 21.6508 23.3968 20.5714 22.9524L20.127 22.7619L19.6825 25.3651C20.4444 25.6826 21.8413 26 23.3016 26C26.6667 26 28.8889 24.4127 28.8889 22C28.8889 20.6667 28.0635 19.6508 26.1587 18.8254C25.0159 18.254 24.3174 17.9365 24.3174 17.3651C24.3174 16.8572 24.8889 16.3492 26.1587 16.3492C27.2381 16.3492 28 16.5397 28.5714 16.7937L28.8889 16.9206L29.3968 14.4445Z" fill="#293688"/>
<path d="M34.8572 14.3174C34.0953 14.3174 33.5239 14.3809 33.2064 15.1428L28.4445 25.746H31.8731L32.508 23.8412H36.5715L36.9525 25.746H40.0001L37.3334 14.3174H34.8572ZM33.3969 21.9364C33.5874 21.365 34.6667 18.5714 34.6667 18.5714C34.6667 18.5714 34.9207 17.8729 35.1112 17.4285L35.3017 18.5079C35.3017 18.5079 35.9366 21.365 36.0636 21.9999H33.3969V21.9364Z" fill="#3C58BF"/>
<path d="M35.6191 14.3174C34.8572 14.3174 34.2858 14.3809 33.9683 15.1428L28.4445 25.746H31.8731L32.508 23.8412H36.5715L36.9525 25.746H40.0001L37.3334 14.3174H35.6191ZM33.3969 21.9364C33.6509 21.3015 34.6667 18.5714 34.6667 18.5714C34.6667 18.5714 34.9207 17.8729 35.1112 17.4285L35.3017 18.5079C35.3017 18.5079 35.9366 21.365 36.0636 21.9999H33.3969V21.9364Z" fill="#293688"/>
<path d="M8.82523 22.3174L8.50777 20.6666C7.93634 18.7618 6.09507 16.6666 4.06332 15.6507L6.92047 25.8094H10.349L15.4919 14.3809H12.0633L8.82523 22.3174Z" fill="#3C58BF"/>
<path d="M8.82523 22.3174L8.50777 20.6666C7.93634 18.7618 6.09507 16.6666 4.06332 15.6507L6.92047 25.8094H10.349L15.4919 14.3809H12.6982L8.82523 22.3174Z" fill="#293688"/>
<path d="M0 14.3174L0.571429 14.4444C4.63492 15.3967 7.42857 17.8094 8.50794 20.6666L7.36508 15.2698C7.1746 14.5079 6.60318 14.3174 5.90476 14.3174H0Z" fill="#FFBC00"/>
<path d="M0 14.3174C4.06349 15.2698 7.42857 17.746 8.50794 20.6031L7.42857 16.0952C7.2381 15.3333 6.60318 14.8888 5.90476 14.8888L0 14.3174Z" fill="#F7981D"/>
<path d="M0 14.3174C4.06349 15.2698 7.42857 17.746 8.50794 20.6031L7.74603 18.1269C7.55556 17.365 7.30159 16.6031 6.4127 16.2856L0 14.3174Z" fill="#ED7C00"/>
<path d="M12 21.9366L9.84127 19.7779L8.8254 22.1906L8.57143 20.6033C8 18.6985 6.15873 16.6033 4.12698 15.5874L6.98413 25.7461H10.4127L12 21.9366Z" fill="#051244"/>
<path d="M17.9049 25.7463L15.1748 22.9526L14.6668 25.7463H17.9049Z" fill="#051244"/>
<path d="M25.2063 21.8096C25.4603 22.0635 25.5873 22.254 25.5238 22.508C25.5238 23.2699 24.5079 23.6508 23.619 23.6508C22.3492 23.6508 21.6508 23.4604 20.5714 23.0159L20.127 22.8254L19.6825 25.4286C20.4444 25.7461 21.8413 26.0635 23.3016 26.0635C25.3333 26.0635 26.9841 25.4921 27.9365 24.4762L25.2063 21.8096Z" fill="#051244"/>
<path d="M28.8889 25.7462H31.873L32.5079 23.8414H36.5714L36.9524 25.7462H40L38.9206 21.1112L35.1111 17.4287L35.3016 18.4446C35.3016 18.4446 35.9365 21.3017 36.0635 21.9366H33.3968C33.6508 21.3017 34.6667 18.5716 34.6667 18.5716C34.6667 18.5716 34.9206 17.8732 35.1111 17.4287" fill="#051244"/>
</g>
<defs>
<clipPath id="clip0">
<rect width="40" height="40" fill="white"/>
</clipPath>
</defs>
</svg>
