<svg width="173" height="25" viewBox="0 0 173 25" fill="none" xmlns="http://www.w3.org/2000/svg">
<path d="M16.9277 19.0961C17.7696 19.0961 18.3457 19.1855 18.7445 19.4092C19.099 19.6328 19.3649 19.9011 19.4979 20.3036C19.6308 20.7061 19.7194 21.1981 19.7194 21.7795C19.7194 22.3609 19.6751 22.8528 19.5422 23.2106C19.4535 23.5684 19.3206 23.8367 19.1433 24.0603C19.0104 24.2392 18.7888 24.3734 18.4786 24.4628C18.1241 24.597 17.5924 24.6417 16.839 24.6417H3.54499C3.10185 24.6417 2.65872 24.5523 2.21558 24.2839C1.285 23.7473 0.797548 22.8975 0.797548 21.7347C0.797548 21.1981 0.930489 20.7061 1.19637 20.3931L11.0783 6.57374H3.72224C3.19048 6.57374 2.83597 6.57374 2.57009 6.52901C2.30421 6.48429 2.03833 6.39485 1.68382 6.26068C1.06343 5.94762 0.753235 5.14261 0.753235 3.84565C0.753235 2.45925 1.01912 1.65424 1.59519 1.34118C1.90539 1.16229 2.21558 1.07284 2.43715 1.02812C2.70303 0.983398 3.05754 0.983398 3.5893 0.983398H16.3959C16.8834 0.983398 17.3708 1.11757 17.8139 1.3859C18.2571 1.65424 18.6116 1.9673 18.8332 2.41453C19.099 2.86175 19.1877 3.3537 19.1877 3.9351C19.1877 4.51649 19.0547 4.96372 18.7888 5.3215L8.99555 19.0961H16.9277Z" fill="#FF931E"/>
<path d="M32.7476 0.715332C35.8939 0.715332 38.6413 1.87812 40.9456 4.15898C43.2499 6.43984 44.4021 9.30209 44.4021 12.701C44.4021 16.0999 43.2942 19.0069 41.0786 21.3772C38.8629 23.7923 36.1598 24.955 32.9249 24.955C29.69 24.955 26.9426 23.7923 24.6826 21.422C22.4226 19.0516 21.2704 16.2341 21.2704 12.9694C21.2704 11.1804 21.5806 9.52571 22.2453 7.96041C22.8657 6.39512 23.752 5.09816 24.8155 4.06954C25.879 2.99619 27.1198 2.19118 28.4935 1.60979C29.8673 0.983668 31.2853 0.715332 32.7476 0.715332ZM26.9426 12.8352C26.9426 14.7583 27.5629 16.2788 28.7594 17.4864C30.0002 18.6939 31.3296 19.2753 32.8806 19.2753C34.3872 19.2753 35.761 18.6939 36.9574 17.5311C38.1539 16.3683 38.7743 14.803 38.7743 12.8799C38.7743 10.9121 38.1539 9.34682 36.9574 8.18403C35.7166 7.02123 34.3872 6.39512 32.8363 6.39512C31.3296 6.39512 29.9559 6.97651 28.7594 8.18403C27.5629 9.39154 26.9426 10.9121 26.9426 12.8352Z" fill="#FF931E"/>
<path d="M57.4745 0.715332C60.6208 0.715332 63.3682 1.87812 65.6725 4.15898C67.9768 6.43984 69.129 9.30209 69.129 12.701C69.129 16.0999 68.0211 19.0069 65.8055 21.3772C63.5898 23.7923 60.8867 24.955 57.6518 24.955C54.4169 24.955 51.6695 23.7923 49.4095 21.422C47.1495 19.0516 45.9973 16.2341 45.9973 12.9694C45.9973 11.1804 46.3075 9.52571 46.9722 7.96041C47.5926 6.39512 48.4789 5.09816 49.5424 4.06954C50.6059 2.99619 51.8467 2.19118 53.2204 1.60979C54.5942 0.983668 56.0122 0.715332 57.4745 0.715332ZM51.6695 12.8352C51.6695 14.7583 52.2898 16.2788 53.4863 17.4864C54.7271 18.6939 56.0565 19.2753 57.6075 19.2753C59.1584 19.2753 60.4878 18.6939 61.6843 17.5311C62.8808 16.3683 63.5012 14.803 63.5012 12.8799C63.5012 10.9121 62.8808 9.34682 61.6843 8.18403C60.4435 7.02123 59.1141 6.39512 57.5632 6.39512C56.0565 6.39512 54.6828 6.97651 53.4863 8.18403C52.2898 9.39154 51.6695 10.9121 51.6695 12.8352Z" fill="#FF931E"/>
<path d="M96.1162 1.87814C96.2935 2.1912 96.3821 2.50426 96.4264 2.72787C96.4707 2.99621 96.4707 3.35399 96.4707 3.84594V21.735C96.4707 23.2109 96.0719 24.1053 95.2742 24.3289C94.8754 24.4631 94.3437 24.5078 93.7233 24.5078C93.1029 24.5078 92.6154 24.4631 92.2609 24.3289C91.9064 24.2395 91.6405 24.1053 91.419 23.9264C91.2417 23.7923 91.0645 23.5687 90.9758 23.3003C90.8872 22.9425 90.7986 22.3611 90.7986 21.6456V10.9121C90.2668 11.583 89.4692 12.6563 88.45 14.0874C87.4307 15.5186 86.766 16.4577 86.5002 16.8155C86.2343 17.1733 86.0127 17.4416 85.9241 17.5758C85.8355 17.71 85.5696 17.8889 85.1264 18.1572C84.7276 18.4255 84.2845 18.515 83.797 18.515C83.3096 18.515 82.8664 18.3808 82.4676 18.1572C82.0688 17.9336 81.8029 17.71 81.6257 17.4864L81.3598 17.1286C80.9166 16.5919 80.0747 15.4291 78.8339 13.6849C77.5931 11.9408 76.8841 11.0016 76.7955 10.8674V21.735C76.7955 22.227 76.7955 22.5848 76.7512 22.8531C76.7069 23.1214 76.6182 23.3898 76.441 23.6581C76.1308 24.2395 75.2888 24.5078 73.9594 24.5078C72.6743 24.5078 71.8324 24.2395 71.5222 23.6581C71.3449 23.345 71.2563 23.0767 71.212 22.8084C71.1677 22.54 71.1677 22.1823 71.1677 21.6456V3.7565C71.1677 3.26455 71.1677 2.90676 71.212 2.63843C71.2563 2.37009 71.3449 2.10176 71.5222 1.7887C71.8324 1.25202 72.6743 0.938965 74.0037 0.938965C74.5798 0.938965 75.0673 1.02841 75.4661 1.16258C75.8649 1.29675 76.1308 1.43091 76.2637 1.60981L76.441 1.7887L83.6641 11.4041C87.2978 6.57403 89.6907 3.39871 90.8872 1.83342C91.2417 1.25202 92.0837 0.983688 93.4574 0.983688C94.964 1.02841 95.806 1.29675 96.1162 1.87814Z" fill="#00CAC9"/>
<path d="M112.512 2.68302L121.109 20.6616C121.463 21.3771 121.641 21.9585 121.641 22.3163C121.641 23.0766 121.02 23.7921 119.779 24.4183C119.07 24.776 118.494 24.9549 118.051 24.9549C117.652 24.9549 117.298 24.8655 117.032 24.6866C116.766 24.5077 116.589 24.2841 116.456 24.0605C116.323 23.8369 116.19 23.5238 115.969 23.0766L114.329 19.5882H105.511L103.871 23.0766C103.649 23.5238 103.472 23.8369 103.383 24.0158C103.251 24.1946 103.073 24.4183 102.807 24.5972C102.542 24.8208 102.187 24.9102 101.788 24.9102C101.389 24.9102 100.813 24.7313 100.06 24.3735C98.8192 23.7921 98.1988 23.0766 98.1988 22.3163C98.1988 21.9585 98.376 21.4218 98.7306 20.6616L107.327 2.68302C107.549 2.19107 107.903 1.78857 108.391 1.47551C108.878 1.16245 109.366 1.02828 109.898 1.02828C111.094 0.983556 111.936 1.56495 112.512 2.68302ZM109.898 10.3753L107.771 14.8029H112.025L109.898 10.3753Z" fill="#00CAC9"/>
<path d="M129.041 19.8119H137.726C138.435 19.8119 138.923 19.9013 139.277 20.0355C139.632 20.1696 139.809 20.438 139.898 20.7958C139.986 21.1535 140.075 21.6008 140.075 22.1822C140.075 22.7636 140.031 23.2108 139.898 23.5686C139.809 23.9264 139.632 24.15 139.366 24.2841C138.967 24.5077 138.391 24.5972 137.726 24.5972H126.249C124.743 24.5972 123.901 24.1947 123.635 23.3897C123.502 23.0319 123.458 22.4952 123.458 21.7349V3.84585C123.458 3.3539 123.458 2.99612 123.502 2.72778C123.546 2.45945 123.635 2.19111 123.812 1.87805C124.122 1.29666 124.92 1.02832 126.294 1.02832C127.8 1.02832 128.687 1.43082 128.952 2.23583C129.041 2.59362 129.13 3.17501 129.13 3.89057V19.8119H129.041Z" fill="#00CAC9"/>
<path d="M142.158 3.84585C142.158 3.3539 142.158 2.99612 142.202 2.72778C142.246 2.45945 142.335 2.19111 142.512 1.87805C142.822 1.29666 143.62 1.02832 144.994 1.02832C146.5 1.02832 147.387 1.43082 147.652 2.23583C147.741 2.59362 147.83 3.17501 147.83 3.89057V21.7797C147.83 22.3163 147.83 22.6741 147.785 22.8977C147.741 23.1213 147.652 23.4344 147.475 23.7475C147.165 24.3289 146.367 24.5972 144.994 24.5972C143.487 24.5972 142.645 24.1947 142.379 23.3897C142.246 23.0319 142.202 22.4952 142.202 21.7349V3.84585H142.158Z" fill="#00CAC9"/>
<path d="M163.827 2.68302L172.424 20.6616C172.778 21.3771 172.956 21.9585 172.956 22.3163C172.956 23.0766 172.335 23.7921 171.094 24.4183C170.385 24.776 169.809 24.9549 169.366 24.9549C168.967 24.9549 168.613 24.8655 168.347 24.6866C168.081 24.5077 167.904 24.2841 167.771 24.0605C167.638 23.8369 167.505 23.5238 167.284 23.0766L165.644 19.5882H156.826L155.186 23.0766C154.964 23.5238 154.787 23.8369 154.698 24.0158C154.566 24.1946 154.388 24.4183 154.122 24.5972C153.857 24.8208 153.502 24.9102 153.103 24.9102C152.704 24.9102 152.128 24.7313 151.375 24.3735C150.134 23.7921 149.514 23.0766 149.514 22.3163C149.514 21.9585 149.691 21.4218 150.046 20.6616L158.642 2.68302C158.864 2.19107 159.218 1.78857 159.706 1.47551C160.193 1.16245 160.681 1.02828 161.213 1.02828C162.409 0.983556 163.295 1.56495 163.827 2.68302ZM161.257 10.3753L159.13 14.8029H163.384L161.257 10.3753Z" fill="#00CAC9"/>
</svg>
